<?xml version="1.0" encoding="utf-8"?>
<!-- Created with "sPlan" (http://www.abacom-online.de) -->
<svg version="1.1" baseProfile="full"
xmlns="http://www.w3.org/2000/svg"
width="114mm" height="198mm"
viewBox="0 0 1140 1980">
<title>graph3</title>
<defs>
<style type="text/css">
<![CDATA[
polyline {stroke-linecap:round; stroke-linejoin:round}
polygon {stroke-linecap:round; stroke-linejoin:round}
path {stroke-linecap:round; stroke-linejoin:round}
circle {stroke-linecap:round; stroke-linejoin:round}
]]>
</style>
</defs>
<polyline points="1017.50 935.00 1017.50 975.00" fill="none" stroke="rgb(0,0,0)" stroke-width="5" />
<circle cx="1017.47" cy="1037.75" r="62.09" fill="rgb(255,255,255)" stroke="rgb(0,0,0)" stroke-width="5" />
<polyline points="1017.50 1100.00 1017.50 1140.00" fill="none" stroke="rgb(0,0,0)" stroke-width="5" />
<path fill="rgb(0,0,0)" stroke="rgb(0,0,0)" stroke-width="0" d=" M 989.41 1012.54 L 990.26 1012.63 990.92 1012.92 991.39 1013.39 991.67 1014.05 991.76 1014.90 991.74 1031.36 1010.56 1031.36 1010.59 1014.90 1010.68 1014.05 1010.96 1013.39 1011.43 1012.92 1012.09 1012.63 1012.94 1012.54 1013.78 1012.63 1014.44 1012.92 1014.91 1013.39 1015.19 1014.05 1015.29 1014.90 1015.24 1057.25 1015.14 1058.10 1014.86 1058.75 1014.39 1059.22 1013.73 1059.51 1012.89 1059.60 1012.04 1059.51 1011.38 1059.22 1010.91 1058.75 1010.63 1058.10 1010.54 1057.25 1010.56 1036.07 991.74 1036.07 991.71 1057.25 991.62 1058.10 991.34 1058.75 990.87 1059.22 990.21 1059.51 989.36 1059.60 988.51 1059.51 987.85 1059.22 987.38 1058.75 987.09 1058.10 987.00 1057.25 987.05 1014.90 987.14 1014.05 987.43 1013.39 987.90 1012.92 988.56 1012.63 989.41 1012.54 Z M 1029.36 1017.25 L 1029.31 1057.25 1029.22 1058.10 1028.94 1058.75 1028.47 1059.22 1027.81 1059.51 1026.96 1059.60 1026.11 1059.51 1025.45 1059.22 1024.98 1058.75 1024.69 1058.10 1024.60 1057.25 1024.65 1014.90 1024.74 1014.05 1025.03 1013.39 1025.50 1012.92 1026.16 1012.63 1027.01 1012.54 1045.84 1012.54 1046.68 1012.63 1047.34 1012.92 1047.81 1013.39 1048.09 1014.05 1048.19 1014.90 1048.09 1015.75 1047.81 1016.40 1047.34 1016.87 1046.68 1017.16 1045.84 1017.25 Z" />
<polyline points="460.00 1435.00 560.00 1435.00" fill="none" stroke="rgb(0,0,0)" stroke-width="5" />
<polyline points="610.00 1435.00 710.00 1435.00" fill="none" stroke="rgb(0,0,0)" stroke-width="5" />
<polyline points="560.00 1300.00 560.00 1570.00" fill="none" stroke="rgb(0,0,0)" stroke-width="5" />
<polyline points="610.00 1350.00 610.00 1520.00" fill="none" stroke="rgb(0,0,0)" stroke-width="5" />
<path fill="rgb(255,255,255)" stroke="rgb(0,0,0)" stroke-width="5" d=" M 325 708 L 500 708 500 782 325 782 325 708 Z" />
<polyline points="250.00 745.00 325.00 745.00" fill="none" stroke="rgb(0,0,0)" stroke-width="5" />
<polyline points="500.00 745.00 575.00 745.00" fill="none" stroke="rgb(0,0,0)" stroke-width="5" />
<path fill="rgb(0,0,0)" stroke="rgb(0,0,0)" stroke-width="0" d=" M 384.50 672.20 L 384.50 670.75 385.85 670.75 386.97 670.73 387.91 670.67 388.66 670.57 389.22 670.43 389.60 670.26 389.85 670.02 390.05 669.68 390.19 669.26 390.27 668.75 390.30 668.16 390.32 639.25 390.30 638.66 390.22 638.15 390.08 637.74 389.88 637.41 389.62 637.17 389.24 636.99 388.68 636.85 387.93 636.75 387.00 636.69 385.88 636.67 384.53 636.67 384.53 635.23 401.96 635.23 404.30 635.34 406.50 635.67 408.55 636.23 410.46 637.01 412.21 638.02 413.73 639.18 414.91 640.42 415.75 641.74 416.25 643.14 416.42 644.63 416.31 645.80 415.98 646.93 415.42 648.00 414.64 649.02 413.64 649.99 412.47 650.87 411.17 651.66 409.76 652.33 408.22 652.90 406.57 653.36 408.63 654.22 410.35 655.30 411.72 656.58 412.75 658.07 413.44 659.77 414.16 664.21 414.24 664.82 414.31 665.37 414.38 665.85 414.45 666.27 414.51 666.62 414.57 666.96 414.64 667.32 414.72 667.70 414.80 668.11 414.89 668.54 414.99 668.96 415.09 669.34 415.18 669.67 415.28 669.95 415.39 670.18 415.49 670.40 415.61 670.61 415.73 670.83 415.87 671.05 416.01 671.27 416.16 671.48 416.32 671.66 416.50 671.80 416.68 671.92 416.87 672.01 417.07 672.08 417.29 672.13 417.52 672.17 417.77 672.19 418.03 672.20 418.50 672.16 418.96 672.04 419.41 671.84 419.84 671.57 420.25 671.21 420.63 670.76 420.94 670.20 421.18 669.54 421.36 668.78 421.47 667.91 421.54 667.63 421.64 667.41 421.79 667.25 421.97 667.16 422.19 667.12 422.45 667.16 422.66 667.26 422.81 667.42 422.90 667.65 422.92 667.95 422.92 668.25 422.89 668.55 422.85 668.86 422.79 669.19 422.72 669.52 422.62 669.86 422.50 670.22 422.35 670.58 422.18 670.96 421.99 671.34 421.76 671.72 421.48 672.08 421.16 672.41 420.79 672.71 420.38 672.99 419.92 673.23 419.44 673.41 418.93 673.54 418.39 673.62 417.83 673.65 416.15 673.56 414.62 673.28 413.21 672.81 411.95 672.16 410.82 671.32 410.40 670.91 410.02 670.47 409.70 670.01 409.43 669.53 409.20 669.02 409.02 668.51 408.86 668.03 408.75 667.56 408.66 667.12 408.61 666.69 408.58 666.23 408.56 665.67 408.54 665.01 408.54 664.25 408.54 663.39 408.52 662.17 408.48 661.10 408.42 660.18 408.32 659.40 408.20 658.76 408.02 658.20 407.75 657.64 407.39 657.08 406.94 656.52 406.40 655.97 405.55 655.29 404.60 654.76 403.55 654.38 402.39 654.15 401.13 654.08 394.66 654.08 394.65 668.12 394.68 668.72 394.76 669.23 394.90 669.65 395.10 669.99 395.35 670.23 395.73 670.42 396.29 670.56 397.04 670.67 397.98 670.73 399.10 670.75 400.45 670.75 400.45 672.20 399.48 672.15 398.20 672.11 396.60 672.09 394.68 672.07 392.45 672.06 390.22 672.07 388.31 672.09 386.72 672.11 385.45 672.15 384.50 672.20 Z M 394.66 652.62 L 400.91 652.62 402.08 652.60 403.16 652.51 404.17 652.38 405.10 652.18 405.95 651.93 406.72 651.64 407.41 651.29 408.00 650.90 408.52 650.47 408.95 649.99 409.31 649.49 409.62 648.99 409.88 648.49 410.10 647.98 410.27 647.48 410.39 646.96 410.49 646.41 410.57 645.84 410.61 645.25 410.62 644.63 410.60 643.89 410.55 643.20 410.46 642.54 410.34 641.92 410.18 641.34 409.98 640.80 409.74 640.31 409.46 639.86 409.14 639.46 408.78 639.10 408.39 638.78 408.01 638.48 407.62 638.20 407.24 637.95 406.86 637.73 406.45 637.53 406.00 637.35 405.52 637.21 404.98 637.08 404.41 636.99 403.83 636.91 403.29 636.84 402.79 636.79 402.33 636.75 401.90 636.73 401.47 636.71 400.99 636.69 400.46 636.68 399.88 636.68 399.26 636.67 398.24 636.68 397.40 636.69 396.73 636.71 396.24 636.74 395.92 636.78 395.68 636.81 395.47 636.86 395.30 636.93 395.15 637.01 395.04 637.12 394.95 637.23 394.87 637.35 394.81 637.47 394.77 637.60 394.73 637.73 394.71 637.88 394.69 638.06 394.68 638.28 394.67 638.53 394.67 638.82 Z M 428.02 641.03 L 428.02 639.58 430.47 639.43 432.67 639.01 434.62 638.30 436.32 637.31 437.78 636.04 438.08 636.05 438.34 636.08 438.53 636.12 438.68 636.18 438.76 636.26 438.81 636.37 438.86 636.55 438.89 636.80 438.90 637.10 438.91 637.47 438.87 668.09 438.91 668.70 439.01 669.22 439.18 669.65 439.42 669.99 439.72 670.24 440.18 670.42 440.86 670.57 441.78 670.67 442.92 670.73 444.29 670.75 446.12 670.75 446.12 672.20 445.15 672.15 443.78 672.11 442.00 672.09 439.82 672.07 437.24 672.06 434.66 672.07 432.48 672.09 430.70 672.11 429.33 672.15 428.36 672.20 428.36 670.75 430.12 670.75 431.40 670.73 432.47 670.67 433.33 670.57 433.98 670.43 434.42 670.26 434.72 670.01 434.95 669.68 435.12 669.25 435.22 668.73 435.25 668.11 435.27 639.80 434.06 640.24 432.73 640.58 431.28 640.83 429.71 640.98 428.02 641.03 Z" />
<path fill="rgb(255,255,255)" stroke="rgb(0,0,0)" stroke-width="5" d=" M 1055 345 L 1055 520 980 520 980 345 1055 345 Z" />
<polyline points="1017.50 270.00 1017.50 345.00" fill="none" stroke="rgb(0,0,0)" stroke-width="5" />
<polyline points="1017.50 520.00 1017.50 595.00" fill="none" stroke="rgb(0,0,0)" stroke-width="5" />
<path fill="rgb(0,0,0)" stroke="rgb(0,0,0)" stroke-width="0" d=" M 899.67 447.20 L 899.67 445.75 901.02 445.75 902.15 445.73 903.09 445.67 903.84 445.57 904.40 445.43 904.77 445.26 905.03 445.02 905.22 444.68 905.36 444.26 905.45 443.75 905.48 443.16 905.50 414.25 905.47 413.66 905.39 413.15 905.25 412.74 905.05 412.41 904.80 412.17 904.42 411.99 903.85 411.85 903.11 411.75 902.17 411.69 901.06 411.67 899.71 411.67 899.71 410.22 917.13 410.22 919.48 410.34 921.68 410.67 923.73 411.23 925.63 412.01 927.39 413.02 928.90 414.18 930.08 415.42 930.92 416.74 931.43 418.14 931.60 419.63 931.49 420.80 931.15 421.93 930.60 423.00 929.82 424.02 928.82 424.99 927.64 425.87 926.35 426.66 924.93 427.33 923.40 427.90 921.74 428.36 923.80 429.22 925.52 430.30 926.90 431.58 927.93 433.07 928.62 434.77 929.33 439.21 929.41 439.82 929.49 440.37 929.56 440.85 929.62 441.27 929.68 441.62 929.75 441.96 929.82 442.32 929.89 442.70 929.98 443.11 930.07 443.54 930.16 443.96 930.26 444.34 930.36 444.67 930.46 444.95 930.56 445.18 930.67 445.40 930.78 445.61 930.91 445.83 931.04 446.05 931.18 446.27 931.34 446.48 931.50 446.66 931.67 446.80 931.85 446.92 932.05 447.01 932.25 447.08 932.47 447.13 932.70 447.17 932.95 447.19 933.21 447.20 933.68 447.16 934.14 447.04 934.58 446.84 935.01 446.57 935.43 446.21 935.80 445.76 936.11 445.20 936.36 444.54 936.54 443.78 936.65 442.91 936.71 442.63 936.82 442.41 936.96 442.25 937.14 442.16 937.36 442.12 937.63 442.16 937.84 442.26 937.98 442.42 938.07 442.65 938.10 442.95 938.09 443.25 938.07 443.55 938.02 443.86 937.97 444.19 937.89 444.52 937.79 444.86 937.67 445.22 937.53 445.58 937.36 445.96 937.17 446.34 936.94 446.72 936.66 447.08 936.34 447.41 935.97 447.71 935.55 447.99 935.10 448.23 934.62 448.41 934.11 448.54 933.57 448.62 933.00 448.65 931.33 448.56 929.79 448.28 928.39 447.81 927.12 447.16 925.99 446.32 925.57 445.91 925.20 445.47 924.88 445.01 924.60 444.53 924.38 444.02 924.19 443.51 924.04 443.03 923.92 442.56 923.84 442.12 923.79 441.69 923.76 441.23 923.73 440.67 923.72 440.01 923.71 439.25 923.71 438.39 923.70 437.17 923.66 436.10 923.59 435.18 923.50 434.40 923.37 433.76 923.19 433.20 922.92 432.64 922.56 432.08 922.11 431.52 921.57 430.97 920.73 430.29 919.78 429.76 918.72 429.38 917.57 429.15 916.30 429.07 909.84 429.07 909.83 443.12 909.85 443.72 909.94 444.23 910.08 444.65 910.27 444.99 910.53 445.23 910.90 445.42 911.46 445.56 912.21 445.67 913.15 445.73 914.28 445.75 915.63 445.75 915.63 447.20 914.66 447.15 913.37 447.11 911.77 447.09 909.85 447.07 907.62 447.06 905.39 447.07 903.48 447.09 901.89 447.11 900.62 447.15 899.67 447.20 Z M 909.84 427.62 L 916.09 427.62 917.25 427.60 918.34 427.51 919.34 427.38 920.27 427.18 921.12 426.93 921.90 426.64 922.58 426.29 923.18 425.90 923.69 425.47 924.12 424.99 924.48 424.49 924.79 423.99 925.06 423.48 925.27 422.98 925.44 422.48 925.57 421.96 925.67 421.41 925.74 420.84 925.78 420.25 925.80 419.63 925.78 418.89 925.73 418.20 925.64 417.54 925.51 416.92 925.36 416.34 925.16 415.80 924.92 415.31 924.64 414.86 924.32 414.46 923.95 414.10 923.57 413.78 923.18 413.48 922.80 413.20 922.41 412.95 922.03 412.73 921.63 412.53 921.18 412.35 920.69 412.21 920.16 412.08 919.58 411.99 919.01 411.91 918.47 411.84 917.97 411.79 917.50 411.75 917.08 411.73 916.64 411.71 916.16 411.69 915.64 411.68 915.06 411.68 914.44 411.67 913.42 411.68 912.57 411.69 911.91 411.71 911.41 411.74 911.09 411.78 910.86 411.81 910.65 411.86 910.47 411.93 910.33 412.01 910.22 412.12 910.13 412.23 910.05 412.35 909.99 412.47 909.94 412.60 909.91 412.73 909.89 412.88 909.87 413.06 909.86 413.28 909.85 413.53 909.85 413.82 Z M 941.00 447.20 L 941.00 446.82 941.02 446.50 941.03 446.23 941.06 446.03 941.10 445.87 941.15 445.75 941.23 445.60 941.33 445.45 941.46 445.28 941.62 445.10 952.07 433.19 954.09 430.59 955.67 428.07 956.79 425.61 957.47 423.22 957.70 420.90 957.62 419.54 957.40 418.26 957.03 417.06 956.51 415.94 955.83 414.90 955.03 414.00 954.09 413.30 953.04 412.80 951.86 412.50 950.55 412.40 949.61 412.45 948.70 412.62 947.81 412.89 946.96 413.27 946.14 413.75 945.37 414.34 944.69 415.01 944.10 415.76 943.60 416.60 943.19 417.52 943.27 417.50 943.38 417.49 943.52 417.48 943.70 417.48 943.91 417.47 944.44 417.51 944.91 417.61 945.34 417.78 945.72 418.03 946.05 418.34 946.33 418.69 946.55 419.07 946.70 419.48 946.79 419.91 946.82 420.36 946.78 420.93 946.67 421.43 946.48 421.87 946.21 422.24 945.87 422.56 945.48 422.82 945.10 423.02 944.72 423.16 944.34 423.25 943.97 423.27 943.81 423.27 943.64 423.26 943.47 423.25 943.28 423.22 943.08 423.20 942.87 423.14 942.64 423.02 942.38 422.85 942.11 422.63 941.80 422.35 941.52 422.01 941.30 421.63 941.15 421.21 941.05 420.73 941.02 420.20 941.14 418.81 941.49 417.47 942.06 416.18 942.88 414.96 943.92 413.79 945.14 412.77 946.48 411.97 947.94 411.40 949.52 411.06 951.23 410.95 953.16 411.06 954.95 411.40 956.60 411.96 958.12 412.74 959.50 413.74 960.68 414.92 961.59 416.23 962.25 417.66 962.64 419.21 962.77 420.90 962.75 421.55 962.69 422.20 962.60 422.83 962.46 423.45 962.28 424.06 962.08 424.65 961.86 425.21 961.63 425.74 961.39 426.25 961.14 426.73 960.83 427.23 960.44 427.78 959.96 428.39 959.39 429.05 958.73 429.77 958.05 430.50 957.39 431.18 956.76 431.82 956.16 432.42 955.58 432.97 954.95 433.56 954.18 434.27 953.27 435.10 952.22 436.06 951.03 437.13 945.26 442.85 954.99 442.85 956.72 442.83 958.09 442.78 959.12 442.69 959.79 442.57 960.11 442.42 960.33 441.97 960.56 441.25 960.80 440.26 961.05 439.00 961.31 437.47 962.76 437.47 961.14 447.20 Z" />
<polyline points="310.00 1690.00 310.00 1720.00" fill="none" stroke="rgb(0,0,0)" stroke-width="5" />
<polyline points="310.00 1570.00 130.00 1630.00 10.00 1630.00" fill="none" stroke="rgb(0,0,0)" stroke-width="5" />
<polyline points="310.00 1570.00 310.00 1540.00" fill="none" stroke="rgb(0,0,0)" stroke-width="5" />
<circle cx="130.00" cy="1630.04" r="14.50" fill="rgb(255,255,255)" stroke="rgb(0,0,0)" stroke-width="5" />
<circle cx="310" cy="1570" r="6" fill="rgb(0,0,0)" stroke="none" stroke-width="2" />
<circle cx="310" cy="1690" r="6" fill="rgb(0,0,0)" stroke="none" stroke-width="2" />
<path fill="rgb(0,0,0)" stroke="rgb(0,0,0)" stroke-width="0" d=" M 186.19 1501.84 L 186.19 1500.40 187.37 1500.40 188.37 1500.38 189.19 1500.32 189.85 1500.22 190.35 1500.09 190.68 1499.91 190.90 1499.67 191.07 1499.34 191.19 1498.92 191.27 1498.42 191.29 1497.82 191.32 1469.11 191.30 1468.53 191.22 1468.03 191.10 1467.61 190.93 1467.29 190.70 1467.05 190.37 1466.87 189.87 1466.74 189.21 1466.64 188.39 1466.58 187.41 1466.56 186.22 1466.56 186.22 1465.12 187.11 1465.17 188.33 1465.21 189.86 1465.23 191.72 1465.25 193.90 1465.26 196.07 1465.25 197.91 1465.23 199.44 1465.21 200.65 1465.17 201.54 1465.12 201.54 1466.56 200.35 1466.56 199.36 1466.58 198.53 1466.64 197.87 1466.74 197.38 1466.87 197.05 1467.05 196.83 1467.29 196.65 1467.61 196.53 1468.03 196.45 1468.53 196.42 1469.11 196.41 1486.43 213.77 1470.15 214.13 1469.80 214.41 1469.44 214.61 1469.08 214.73 1468.71 214.77 1468.34 214.76 1468.21 214.75 1468.08 214.72 1467.94 214.68 1467.80 214.63 1467.66 214.55 1467.52 214.43 1467.37 214.28 1467.23 214.08 1467.08 213.85 1466.93 213.58 1466.80 213.28 1466.69 212.95 1466.62 212.60 1466.57 212.22 1466.56 212.22 1465.12 213.10 1465.17 214.25 1465.21 215.66 1465.23 217.34 1465.25 219.27 1465.26 220.51 1465.25 221.60 1465.23 222.54 1465.21 223.34 1465.17 223.99 1465.12 223.99 1466.56 222.20 1466.71 220.52 1467.11 218.94 1467.77 217.47 1468.67 216.10 1469.83 206.11 1479.25 218.89 1497.77 219.36 1498.39 219.82 1498.92 220.28 1499.35 220.74 1499.68 221.19 1499.92 221.69 1500.09 222.30 1500.23 223.00 1500.32 223.80 1500.38 224.71 1500.40 224.71 1501.84 223.34 1501.79 222.01 1501.75 220.74 1501.73 219.52 1501.71 218.35 1501.70 216.12 1501.71 214.21 1501.73 212.62 1501.75 211.36 1501.79 210.42 1501.84 210.42 1500.40 211.60 1500.33 212.52 1500.14 213.17 1499.80 213.57 1499.34 213.70 1498.75 213.66 1498.48 213.56 1498.16 213.39 1497.79 213.16 1497.36 212.85 1496.89 202.83 1482.31 196.41 1488.29 196.40 1497.82 196.42 1498.41 196.50 1498.91 196.62 1499.32 196.79 1499.65 197.01 1499.89 197.34 1500.08 197.84 1500.22 198.50 1500.32 199.33 1500.38 200.32 1500.40 201.50 1500.40 201.50 1501.84 200.61 1501.79 199.40 1501.75 197.86 1501.73 196.00 1501.71 193.82 1501.70 191.66 1501.71 189.81 1501.73 188.28 1501.75 187.08 1501.79 186.19 1501.84 Z M 232.16 1470.88 L 232.16 1469.44 234.62 1469.30 236.83 1468.88 238.79 1468.18 240.51 1467.19 241.97 1465.93 242.28 1465.94 242.53 1465.96 242.73 1466.01 242.87 1466.07 242.96 1466.14 243.02 1466.26 243.06 1466.44 243.09 1466.68 243.10 1466.98 243.11 1467.35 243.08 1497.76 243.11 1498.36 243.21 1498.88 243.38 1499.31 243.62 1499.65 243.93 1499.89 244.39 1500.08 245.08 1500.22 245.99 1500.32 247.14 1500.38 248.52 1500.40 250.37 1500.40 250.37 1501.84 249.39 1501.79 248.01 1501.75 246.22 1501.73 244.03 1501.71 241.43 1501.70 238.83 1501.71 236.64 1501.73 234.85 1501.75 233.47 1501.79 232.50 1501.84 232.50 1500.40 234.27 1500.40 235.56 1500.38 236.63 1500.32 237.50 1500.22 238.15 1500.09 238.59 1499.91 238.89 1499.67 239.13 1499.33 239.30 1498.91 239.40 1498.39 239.43 1497.78 239.45 1469.66 238.23 1470.10 236.89 1470.44 235.43 1470.69 233.85 1470.83 232.16 1470.88 Z" />
<polyline points="310.00 1720.00 310.00 1835.00 460.00 1835.00" fill="none" stroke="rgb(0,0,0)" stroke-width="5" />
<polyline points="460.00 1835.00 560.00 1835.00" fill="none" stroke="rgb(0,0,0)" stroke-width="5" />
<polyline points="610.00 1835.00 710.00 1835.00" fill="none" stroke="rgb(0,0,0)" stroke-width="5" />
<polyline points="560.00 1700.00 560.00 1970.00" fill="none" stroke="rgb(0,0,0)" stroke-width="5" />
<polyline points="610.00 1750.00 610.00 1920.00" fill="none" stroke="rgb(0,0,0)" stroke-width="5" />
<polyline points="310.00 1540.00 310.00 1435.00 460.00 1435.00" fill="none" stroke="rgb(0,0,0)" stroke-width="5" />
<polyline points="710.00 1835.00 860.00 1835.00 860.00 1435.00 710.00 1435.00" fill="none" stroke="rgb(0,0,0)" stroke-width="5" />
<circle cx="860" cy="1630" r="6" fill="rgb(0,0,0)" stroke="none" stroke-width="2" />
<path fill="rgb(255,255,255)" stroke="rgb(0,0,0)" stroke-width="5" d=" M 980 1228 L 1055 1228 1055 1402 980 1402 980 1228 Z" />
<polyline points="1017.50 1140.00 1017.50 1227.50" fill="none" stroke="rgb(0,0,0)" stroke-width="5" />
<polyline points="1060.00 1327.50 1122.50 1327.50 1122.50 1502.50" fill="none" stroke="rgb(0,0,0)" stroke-width="5" />
<polygon points="1100.80 1316.70 1060.00 1327.50 1100.80 1338.30" fill="rgb(0,0,0)" stroke="rgb(0,0,0)" stroke-width="5" />
<path fill="rgb(0,0,0)" stroke="rgb(0,0,0)" stroke-width="0" d=" M 882.16 1339.34 L 882.16 1337.90 883.50 1337.90 884.62 1337.88 885.55 1337.82 886.29 1337.72 886.85 1337.59 887.22 1337.41 887.47 1337.17 887.67 1336.84 887.81 1336.42 887.89 1335.92 887.92 1335.32 887.94 1306.61 887.92 1306.03 887.84 1305.53 887.70 1305.11 887.50 1304.79 887.25 1304.55 886.87 1304.37 886.31 1304.24 885.57 1304.14 884.64 1304.08 883.53 1304.06 882.19 1304.06 882.19 1302.62 899.50 1302.62 901.83 1302.73 904.01 1303.06 906.05 1303.62 907.94 1304.39 909.68 1305.39 911.19 1306.54 912.36 1307.77 913.19 1309.09 913.70 1310.48 913.86 1311.96 913.75 1313.12 913.42 1314.24 912.87 1315.30 912.10 1316.32 911.10 1317.28 909.94 1318.16 908.65 1318.94 907.25 1319.61 905.72 1320.17 904.08 1320.63 906.12 1321.49 907.83 1322.55 909.20 1323.83 910.22 1325.31 910.90 1327.00 911.61 1331.41 911.69 1332.01 911.77 1332.55 911.84 1333.03 911.90 1333.45 911.96 1333.80 912.02 1334.13 912.09 1334.49 912.17 1334.87 912.25 1335.28 912.34 1335.71 912.44 1336.12 912.54 1336.50 912.63 1336.82 912.73 1337.10 912.83 1337.34 912.94 1337.55 913.05 1337.76 913.18 1337.98 913.31 1338.20 913.45 1338.42 913.60 1338.62 913.76 1338.80 913.94 1338.95 914.12 1339.07 914.31 1339.15 914.51 1339.22 914.73 1339.27 914.96 1339.31 915.20 1339.33 915.46 1339.34 915.93 1339.30 916.39 1339.18 916.83 1338.99 917.25 1338.71 917.67 1338.36 918.04 1337.91 918.35 1337.36 918.59 1336.70 918.77 1335.94 918.88 1335.08 918.94 1334.80 919.05 1334.58 919.19 1334.42 919.37 1334.33 919.59 1334.30 919.85 1334.33 920.06 1334.43 920.20 1334.60 920.29 1334.83 920.32 1335.12 920.31 1335.41 920.29 1335.72 920.25 1336.03 920.19 1336.35 920.11 1336.68 920.02 1337.02 919.90 1337.37 919.75 1337.73 919.58 1338.11 919.39 1338.49 919.16 1338.87 918.89 1339.22 918.57 1339.54 918.20 1339.85 917.79 1340.12 917.34 1340.36 916.86 1340.54 916.35 1340.67 915.82 1340.75 915.26 1340.78 913.60 1340.69 912.07 1340.41 910.68 1339.95 909.42 1339.30 908.29 1338.46 907.88 1338.05 907.51 1337.62 907.19 1337.17 906.92 1336.69 906.69 1336.18 906.51 1335.68 906.36 1335.20 906.24 1334.73 906.16 1334.29 906.11 1333.87 906.08 1333.41 906.05 1332.86 906.04 1332.20 906.03 1331.44 906.03 1330.59 906.02 1329.38 905.98 1328.32 905.91 1327.40 905.82 1326.62 905.70 1325.99 905.52 1325.43 905.25 1324.88 904.89 1324.32 904.44 1323.77 903.91 1323.22 903.07 1322.54 902.12 1322.02 901.08 1321.64 899.93 1321.42 898.68 1321.34 892.25 1321.34 892.24 1335.29 892.27 1335.88 892.35 1336.39 892.49 1336.81 892.69 1337.14 892.94 1337.39 893.31 1337.57 893.87 1337.72 894.61 1337.82 895.54 1337.88 896.66 1337.90 898.00 1337.90 898.00 1339.34 897.04 1339.29 895.76 1339.25 894.17 1339.23 892.27 1339.21 890.05 1339.20 887.84 1339.21 885.94 1339.23 884.36 1339.25 883.10 1339.29 882.16 1339.34 Z M 892.25 1319.90 L 898.46 1319.90 899.62 1319.87 900.69 1319.79 901.69 1319.65 902.62 1319.46 903.46 1319.21 904.23 1318.92 904.91 1318.58 905.50 1318.19 906.01 1317.76 906.44 1317.28 906.80 1316.79 907.11 1316.29 907.37 1315.79 907.58 1315.29 907.75 1314.79 907.88 1314.27 907.98 1313.73 908.05 1313.17 908.09 1312.57 908.10 1311.96 908.09 1311.23 908.03 1310.54 907.94 1309.89 907.82 1309.27 907.66 1308.69 907.47 1308.16 907.23 1307.67 906.95 1307.22 906.63 1306.82 906.27 1306.47 905.89 1306.15 905.50 1305.85 905.12 1305.58 904.74 1305.33 904.36 1305.11 903.96 1304.91 903.52 1304.73 903.03 1304.59 902.50 1304.47 901.93 1304.37 901.36 1304.29 900.82 1304.23 900.32 1304.18 899.86 1304.14 899.44 1304.11 899.01 1304.09 898.53 1304.08 898.01 1304.07 897.44 1304.06 896.82 1304.06 895.81 1304.06 894.97 1304.08 894.31 1304.10 893.82 1304.12 893.50 1304.16 893.26 1304.19 893.06 1304.24 892.88 1304.31 892.74 1304.40 892.63 1304.50 892.54 1304.61 892.46 1304.73 892.40 1304.85 892.36 1304.98 892.32 1305.11 892.30 1305.25 892.28 1305.44 892.27 1305.65 892.27 1305.90 892.26 1306.19 Z M 922.49 1331.94 L 922.52 1331.28 922.61 1330.69 922.75 1330.18 922.95 1329.73 923.21 1329.37 923.51 1329.07 923.82 1328.84 924.15 1328.67 924.50 1328.57 924.87 1328.54 925.41 1328.57 925.92 1328.68 926.40 1328.85 926.84 1329.10 927.26 1329.41 927.61 1329.79 927.89 1330.21 928.09 1330.69 928.21 1331.21 928.25 1331.79 928.20 1332.41 928.06 1332.98 927.82 1333.49 927.50 1333.94 927.08 1334.33 926.60 1334.65 926.08 1334.88 925.52 1335.02 924.92 1335.06 924.28 1335.02 924.89 1335.88 925.58 1336.64 926.38 1337.30 927.26 1337.86 928.25 1338.32 929.27 1338.68 930.27 1338.97 931.26 1339.18 932.24 1339.30 933.20 1339.34 934.18 1339.25 935.12 1339.00 936.03 1338.57 936.90 1337.97 937.73 1337.20 938.46 1336.22 939.03 1335.00 939.44 1333.52 939.69 1331.80 939.77 1329.82 939.70 1328.18 939.49 1326.69 939.14 1325.34 938.65 1324.14 938.02 1323.08 937.25 1322.20 936.35 1321.51 935.31 1321.01 934.14 1320.72 932.83 1320.62 930.18 1320.62 930.06 1320.62 929.97 1320.61 929.89 1320.59 929.83 1320.57 929.78 1320.54 929.75 1320.49 929.72 1320.42 929.71 1320.30 929.70 1320.16 929.69 1319.99 929.69 1319.79 929.68 1319.63 929.68 1319.50 929.66 1319.40 929.65 1319.34 930.03 1319.33 930.46 1319.31 930.93 1319.28 931.45 1319.24 932.01 1319.18 933.35 1319.04 934.55 1318.70 935.63 1318.15 936.57 1317.41 937.39 1316.46 937.99 1315.44 938.46 1314.34 938.79 1313.15 939.00 1311.88 939.06 1310.53 938.99 1309.20 938.78 1308.04 938.43 1307.04 937.95 1306.21 937.32 1305.53 936.60 1305.00 935.84 1304.59 935.04 1304.30 934.19 1304.12 933.30 1304.06 932.47 1304.09 931.62 1304.20 930.76 1304.37 929.88 1304.60 928.98 1304.91 928.11 1305.29 927.33 1305.76 926.63 1306.31 926.02 1306.94 925.48 1307.66 926.74 1307.77 927.72 1308.12 928.42 1308.69 928.84 1309.50 928.98 1310.53 928.95 1311.01 928.86 1311.46 928.70 1311.87 928.48 1312.25 928.20 1312.60 927.86 1312.89 927.48 1313.12 927.07 1313.29 926.61 1313.39 926.11 1313.42 925.64 1313.39 925.19 1313.29 924.78 1313.13 924.40 1312.91 924.05 1312.63 923.75 1312.29 923.52 1311.90 923.35 1311.47 923.26 1310.99 923.22 1310.47 923.34 1309.19 923.70 1308.00 924.29 1306.88 925.12 1305.85 926.19 1304.90 927.44 1304.08 928.79 1303.44 930.26 1302.98 931.84 1302.71 933.53 1302.62 935.19 1302.71 936.76 1302.98 938.25 1303.43 939.64 1304.06 940.95 1304.87 942.08 1305.82 942.97 1306.86 943.60 1308.01 943.98 1309.25 944.10 1310.58 944.01 1311.80 943.75 1312.97 943.31 1314.09 942.69 1315.17 941.89 1316.20 940.96 1317.16 939.91 1317.99 938.77 1318.70 937.52 1319.30 936.16 1319.78 937.80 1320.19 939.30 1320.77 940.67 1321.51 941.90 1322.41 942.98 1323.47 943.90 1324.64 944.61 1325.86 945.12 1327.13 945.43 1328.45 945.53 1329.82 945.39 1331.55 944.96 1333.19 944.26 1334.73 943.27 1336.17 942.01 1337.52 940.54 1338.70 938.94 1339.61 937.22 1340.26 935.36 1340.65 933.38 1340.78 931.64 1340.68 930.00 1340.37 928.46 1339.87 927.03 1339.16 925.69 1338.24 924.54 1337.18 923.64 1336.02 923.00 1334.76 922.62 1333.40 922.49 1331.94 Z" />
<polyline points="860.00 1630.00 1120.00 1630.00 1122.50 1502.50" fill="none" stroke="rgb(0,0,0)" stroke-width="5" />
<polyline points="360.00 135.00 460.00 135.00" fill="none" stroke="rgb(0,0,0)" stroke-width="5" />
<polyline points="510.00 135.00 610.00 135.00" fill="none" stroke="rgb(0,0,0)" stroke-width="5" />
<polyline points="460.00 0.00 460.00 270.00" fill="none" stroke="rgb(0,0,0)" stroke-width="5" />
<polyline points="510.00 50.00 510.00 220.00" fill="none" stroke="rgb(0,0,0)" stroke-width="5" />
<path fill="rgb(0,0,0)" stroke="rgb(0,0,0)" stroke-width="0" d=" M 395.67 77.33 L 396.11 74.27 397.44 71.50 399.64 69.02 402.72 66.81 406.68 64.89 404.16 63.78 402.20 62.45 400.80 60.90 399.96 59.13 399.68 57.15 399.87 55.11 400.42 53.19 401.34 51.39 402.63 49.71 404.29 48.15 406.20 46.80 408.22 45.75 410.37 45.00 412.65 44.55 415.04 44.40 416.09 44.45 417.09 44.59 418.03 44.83 418.92 45.16 419.76 45.58 420.53 46.08 421.22 46.62 421.82 47.22 422.34 47.86 422.77 48.55 423.14 49.26 423.47 49.93 423.76 50.58 424.01 51.21 424.21 51.81 424.38 52.38 424.51 52.92 424.61 53.43 424.66 53.92 424.68 54.38 424.66 54.88 424.58 55.36 424.45 55.81 424.27 56.24 424.04 56.63 423.78 56.98 423.50 57.25 423.21 57.45 422.91 57.56 422.59 57.60 422.22 57.54 421.94 57.34 421.74 57.02 421.61 56.57 421.57 55.99 421.58 55.93 421.58 55.84 421.59 55.71 421.61 55.55 421.63 55.35 421.65 55.14 421.66 54.93 421.67 54.74 421.68 54.55 421.68 54.38 421.60 53.04 421.37 51.82 420.97 50.71 420.42 49.72 419.71 48.84 418.88 48.11 417.99 47.54 417.02 47.13 415.99 46.88 414.89 46.80 413.45 46.93 412.08 47.34 410.80 48.01 409.58 48.95 408.44 50.17 407.45 51.52 406.68 52.88 406.12 54.26 405.79 55.65 405.68 57.06 405.75 58.15 405.96 59.17 406.32 60.10 406.81 60.96 407.45 61.74 408.14 62.41 408.82 62.93 409.47 63.30 410.10 63.53 410.71 63.60 411.07 63.58 411.50 63.50 412.03 63.38 412.63 63.22 413.32 63.00 414.00 62.78 414.60 62.62 415.12 62.50 415.55 62.42 415.90 62.40 416.58 62.48 417.11 62.71 417.49 63.09 417.72 63.62 417.79 64.31 417.76 64.75 417.67 65.16 417.51 65.56 417.29 65.94 417.00 66.31 416.67 66.63 416.31 66.88 415.91 67.06 415.49 67.16 415.03 67.20 414.68 67.18 414.23 67.10 413.71 66.98 413.09 66.82 412.38 66.60 411.68 66.38 411.09 66.22 410.62 66.10 410.25 66.02 409.99 66.00 409.11 66.14 408.15 66.54 407.11 67.22 405.98 68.17 404.78 69.38 403.67 70.79 402.80 72.31 402.17 73.93 401.80 75.66 401.67 77.49 401.72 78.47 401.88 79.41 402.14 80.31 402.50 81.17 402.97 81.99 403.55 82.72 404.26 83.28 405.08 83.68 406.02 83.92 407.09 84.00 408.36 83.92 409.67 83.69 411.00 83.29 412.36 82.75 413.74 82.04 415.10 81.19 416.36 80.21 417.53 79.11 418.60 77.87 419.59 76.50 420.00 75.94 420.34 75.50 420.60 75.18 420.80 74.98 420.93 74.89 421.05 74.87 421.16 74.87 421.27 74.91 421.38 74.98 421.48 75.08 421.57 75.20 421.64 75.33 421.69 75.48 421.72 75.65 421.73 75.83 421.72 76.03 421.67 76.22 421.61 76.43 421.51 76.63 421.39 76.84 420.59 78.23 419.60 79.59 418.41 80.90 417.03 82.17 415.44 83.39 413.72 84.47 411.94 85.32 410.09 85.92 408.18 86.28 406.20 86.40 404.57 86.31 403.02 86.03 401.55 85.56 400.16 84.91 398.85 84.08 397.70 83.06 396.81 81.88 396.18 80.53 395.79 79.01 395.67 77.33 Z" />
<polyline points="610.00 135.00 1017.50 135.00 1017.50 270.00" fill="none" stroke="rgb(0,0,0)" stroke-width="5" />
<polyline points="10.00 1630.00 10.00 135.00 360.00 135.00" fill="none" stroke="rgb(0,0,0)" stroke-width="5" />
<polyline points="250.00 745.00 10.00 750.00" fill="none" stroke="rgb(0,0,0)" stroke-width="5" />
<circle cx="10" cy="750" r="6" fill="rgb(0,0,0)" stroke="none" stroke-width="2" />
<polyline points="710.00 700.00 910.00 700.00" fill="none" stroke="rgb(0,0,0)" stroke-width="5" />
<polyline points="710.00 745.00 910.00 745.00" fill="none" stroke="rgb(0,0,0)" stroke-width="5" />
<polyline points="710.00 790.00 910.00 790.00" fill="none" stroke="rgb(0,0,0)" stroke-width="5" />
<polyline points="710.00 790.00 710.00 895.00 1017.50 895.00" fill="none" stroke="rgb(0,0,0)" stroke-width="5" />
<polyline points="1017.50 595.00 710.00 595.00 710.00 700.00" fill="none" stroke="rgb(0,0,0)" stroke-width="5" />
<polyline points="575.00 745.00 710.00 745.00" fill="none" stroke="rgb(0,0,0)" stroke-width="5" />
<circle cx="710" cy="745" r="6" fill="rgb(0,0,0)" stroke="none" stroke-width="2" />
<circle cx="910" cy="700" r="8" fill="rgb(0,0,0)" stroke="none" stroke-width="2" />
<circle cx="910" cy="790" r="8" fill="rgb(0,0,0)" stroke="none" stroke-width="2" />
<circle cx="910.04" cy="745.00" r="14.54" fill="rgb(255,255,255)" stroke="rgb(0,0,0)" stroke-width="5" />
<polyline points="710.00 700.00 710.00 790.00" fill="none" stroke="rgb(0,0,0)" stroke-width="5" stroke-dasharray="0,10" />
<polyline points="720.00 700.00 720.00 790.00" fill="none" stroke="rgb(0,0,0)" stroke-width="5" stroke-dasharray="0,10" />
<polyline points="730.00 700.00 730.00 790.00" fill="none" stroke="rgb(0,0,0)" stroke-width="5" stroke-dasharray="0,10" />
<path fill="rgb(255,255,255)" stroke="rgb(0,0,0)" stroke-width="5" d=" M 880 630 L 940 630 940 670 880 670 880 630 Z" />
<polyline points="910.00 700.00 910.00 670.00" fill="none" stroke="rgb(0,0,0)" stroke-width="5" />
<path fill="rgb(0,0,0)" stroke="rgb(0,0,0)" stroke-width="0" d=" M 975.06 670.88 L 975.06 669.44 977.49 669.30 979.67 668.88 981.61 668.18 983.30 667.19 984.75 665.93 985.05 665.94 985.30 665.96 985.50 666.01 985.64 666.07 985.73 666.14 985.78 666.26 985.82 666.44 985.85 666.68 985.87 666.98 985.87 667.35 985.84 697.76 985.87 698.36 985.97 698.88 986.14 699.31 986.38 699.65 986.68 699.89 987.14 700.08 987.81 700.22 988.72 700.32 989.86 700.38 991.22 700.40 993.04 700.40 993.04 701.84 992.07 701.79 990.71 701.75 988.94 701.73 986.78 701.71 984.21 701.71 981.65 701.71 979.49 701.73 977.72 701.75 976.36 701.79 975.40 701.84 975.40 700.40 977.14 700.40 978.42 700.38 979.48 700.32 980.33 700.22 980.98 700.09 981.41 699.91 981.71 699.67 981.94 699.33 982.11 698.91 982.21 698.39 982.24 697.78 982.26 669.67 981.06 670.10 979.73 670.44 978.29 670.69 976.74 670.83 975.06 670.88 Z" />
<path fill="rgb(0,0,0)" stroke="rgb(0,0,0)" stroke-width="0" d=" M 972.17 824.44 L 972.20 823.78 972.29 823.19 972.43 822.68 972.63 822.23 972.89 821.87 973.19 821.57 973.50 821.34 973.83 821.17 974.18 821.07 974.54 821.04 975.09 821.07 975.60 821.18 976.08 821.35 976.52 821.60 976.94 821.91 977.29 822.29 977.57 822.71 977.77 823.19 977.89 823.71 977.93 824.29 977.88 824.91 977.74 825.48 977.50 825.99 977.18 826.44 976.76 826.83 976.28 827.15 975.76 827.38 975.20 827.52 974.60 827.56 973.96 827.52 974.57 828.38 975.26 829.14 976.06 829.80 976.94 830.36 977.93 830.82 978.95 831.18 979.95 831.47 980.94 831.68 981.92 831.80 982.88 831.84 983.86 831.75 984.80 831.50 985.71 831.07 986.58 830.47 987.41 829.70 988.14 828.72 988.71 827.50 989.12 826.02 989.37 824.30 989.45 822.32 989.38 820.68 989.17 819.19 988.82 817.84 988.33 816.64 987.70 815.58 986.93 814.70 986.03 814.01 984.99 813.51 983.82 813.22 982.51 813.12 979.85 813.12 979.74 813.12 979.65 813.11 979.57 813.09 979.51 813.07 979.46 813.04 979.43 812.99 979.40 812.92 979.39 812.81 979.37 812.66 979.37 812.49 979.37 812.29 979.36 812.13 979.36 812.00 979.34 811.90 979.33 811.84 979.71 811.83 980.14 811.81 980.61 811.78 981.13 811.74 981.69 811.68 983.03 811.54 984.23 811.20 985.31 810.65 986.25 809.91 987.07 808.96 987.67 807.94 988.14 806.84 988.47 805.65 988.68 804.38 988.74 803.03 988.67 801.70 988.46 800.54 988.11 799.54 987.63 798.71 987.00 798.03 986.28 797.50 985.52 797.09 984.72 796.80 983.87 796.62 982.98 796.56 982.15 796.59 981.30 796.70 980.44 796.87 979.56 797.10 978.66 797.41 977.79 797.79 977.01 798.26 976.31 798.81 975.70 799.44 975.16 800.16 976.42 800.27 977.40 800.62 978.10 801.19 978.52 802.00 978.66 803.03 978.63 803.51 978.54 803.96 978.38 804.37 978.16 804.75 977.88 805.10 977.54 805.39 977.16 805.62 976.75 805.79 976.29 805.89 975.79 805.92 975.32 805.89 974.87 805.79 974.46 805.63 974.08 805.41 973.73 805.13 973.43 804.79 973.20 804.40 973.03 803.97 972.94 803.49 972.90 802.97 973.02 801.69 973.38 800.50 973.97 799.38 974.80 798.35 975.87 797.40 977.12 796.58 978.47 795.94 979.94 795.48 981.52 795.21 983.21 795.12 984.87 795.21 986.44 795.48 987.93 795.93 989.32 796.56 990.63 797.37 991.76 798.32 992.65 799.36 993.28 800.51 993.66 801.75 993.78 803.09 993.69 804.30 993.43 805.47 992.99 806.59 992.37 807.67 991.57 808.70 990.64 809.66 989.59 810.49 988.45 811.20 987.20 811.80 985.84 812.28 987.48 812.69 988.98 813.27 990.35 814.01 991.57 814.91 992.66 815.97 993.58 817.14 994.29 818.36 994.80 819.63 995.11 820.95 995.21 822.32 995.07 824.05 994.64 825.69 993.94 827.23 992.95 828.67 991.69 830.02 990.22 831.20 988.62 832.11 986.90 832.76 985.04 833.15 983.06 833.28 981.32 833.18 979.68 832.87 978.14 832.37 976.71 831.66 975.37 830.74 974.22 829.68 973.32 828.52 972.68 827.26 972.30 825.90 972.17 824.44 Z" />
<path fill="rgb(0,0,0)" stroke="rgb(0,0,0)" stroke-width="0" d=" M 1012.88 761.84 L 1012.88 761.46 1012.90 761.14 1012.91 760.88 1012.94 760.67 1012.98 760.52 1013.03 760.40 1013.11 760.26 1013.21 760.10 1013.34 759.94 1013.50 759.76 1023.87 747.92 1025.88 745.35 1027.44 742.84 1028.56 740.40 1029.24 738.02 1029.46 735.72 1029.39 734.37 1029.17 733.10 1028.80 731.90 1028.28 730.79 1027.61 729.76 1026.81 728.87 1025.88 728.17 1024.83 727.68 1023.66 727.38 1022.36 727.28 1021.43 727.33 1020.52 727.50 1019.65 727.76 1018.80 728.14 1017.98 728.62 1017.22 729.20 1016.55 729.87 1015.96 730.62 1015.46 731.45 1015.05 732.37 1015.13 732.35 1015.24 732.34 1015.39 732.33 1015.56 732.32 1015.77 732.32 1016.29 732.35 1016.76 732.46 1017.19 732.63 1017.57 732.87 1017.90 733.18 1018.17 733.53 1018.39 733.91 1018.54 734.31 1018.63 734.74 1018.66 735.19 1018.62 735.75 1018.51 736.25 1018.32 736.68 1018.05 737.06 1017.71 737.37 1017.33 737.63 1016.95 737.82 1016.58 737.97 1016.20 738.05 1015.83 738.08 1015.67 738.08 1015.50 738.07 1015.33 738.05 1015.14 738.03 1014.95 738.00 1014.74 737.94 1014.51 737.83 1014.25 737.66 1013.98 737.44 1013.68 737.16 1013.40 736.83 1013.18 736.45 1013.03 736.02 1012.93 735.55 1012.90 735.03 1013.02 733.64 1013.36 732.31 1013.94 731.04 1014.74 729.82 1015.78 728.66 1016.99 727.65 1018.32 726.86 1019.77 726.29 1021.34 725.95 1023.04 725.84 1024.95 725.95 1026.73 726.28 1028.38 726.84 1029.88 727.61 1031.25 728.61 1032.42 729.78 1033.33 731.08 1033.98 732.50 1034.37 734.05 1034.50 735.72 1034.48 736.37 1034.42 737.01 1034.33 737.64 1034.19 738.25 1034.01 738.86 1033.81 739.44 1033.60 740.00 1033.37 740.53 1033.13 741.03 1032.88 741.51 1032.57 742.00 1032.18 742.55 1031.71 743.15 1031.14 743.82 1030.49 744.53 1029.81 745.25 1029.16 745.93 1028.53 746.57 1027.93 747.16 1027.36 747.71 1026.73 748.30 1025.97 749.00 1025.06 749.83 1024.02 750.77 1022.84 751.84 1017.11 757.52 1026.77 757.52 1028.49 757.50 1029.86 757.45 1030.87 757.37 1031.54 757.25 1031.86 757.09 1032.08 756.64 1032.30 755.93 1032.54 754.94 1032.79 753.69 1033.05 752.18 1034.49 752.18 1032.88 761.84 Z" />
<path fill="rgb(0,0,0)" stroke="rgb(0,0,0)" stroke-width="0" d=" M 752.16 541.84 L 752.16 540.40 753.33 540.40 754.31 540.38 755.13 540.32 755.78 540.22 756.27 540.09 756.59 539.91 756.81 539.67 756.98 539.34 757.10 538.92 757.18 538.42 757.20 537.82 757.22 509.11 757.20 508.53 757.13 508.03 757.01 507.61 756.84 507.29 756.61 507.05 756.29 506.87 755.80 506.74 755.15 506.64 754.34 506.58 753.36 506.56 752.19 506.56 752.19 505.12 753.07 505.17 754.27 505.21 755.79 505.23 757.62 505.25 759.78 505.25 761.91 505.25 763.74 505.23 765.24 505.21 766.44 505.17 767.31 505.12 767.31 506.56 766.14 506.56 765.16 506.58 764.35 506.64 763.69 506.74 763.21 506.87 762.88 507.05 762.66 507.29 762.49 507.61 762.37 508.03 762.29 508.53 762.26 509.11 762.25 526.43 779.39 510.15 779.74 509.80 780.02 509.44 780.22 509.08 780.34 508.71 780.38 508.34 780.37 508.21 780.35 508.08 780.32 507.94 780.28 507.80 780.23 507.66 780.16 507.52 780.04 507.37 779.89 507.23 779.70 507.08 779.46 506.93 779.20 506.80 778.90 506.69 778.58 506.62 778.23 506.57 777.85 506.56 777.85 505.12 778.73 505.17 779.87 505.21 781.26 505.23 782.91 505.25 784.82 505.25 786.04 505.25 787.12 505.23 788.05 505.21 788.84 505.17 789.48 505.12 789.48 506.56 787.71 506.71 786.05 507.11 784.49 507.77 783.04 508.67 781.69 509.83 771.83 519.25 784.45 537.77 784.91 538.39 785.36 538.92 785.81 539.35 786.27 539.68 786.71 539.92 787.21 540.09 787.81 540.23 788.50 540.32 789.29 540.38 790.18 540.40 790.18 541.84 788.83 541.79 787.53 541.75 786.27 541.73 785.07 541.71 783.91 541.71 781.70 541.71 779.82 541.73 778.25 541.75 777.01 541.79 776.08 541.84 776.08 540.40 777.24 540.33 778.15 540.14 778.80 539.80 779.19 539.34 779.32 538.75 779.28 538.48 779.18 538.16 779.02 537.79 778.78 537.36 778.48 536.89 768.58 522.31 762.25 528.30 762.24 537.82 762.26 538.41 762.34 538.91 762.46 539.32 762.63 539.65 762.85 539.89 763.17 540.08 763.66 540.22 764.31 540.32 765.13 540.38 766.11 540.40 767.28 540.40 767.28 541.84 766.40 541.79 765.20 541.75 763.69 541.73 761.85 541.71 759.70 541.71 757.56 541.71 755.74 541.73 754.23 541.75 753.04 541.79 752.16 541.84 Z M 795.36 541.84 L 795.36 541.46 795.38 541.14 795.39 540.88 795.42 540.67 795.46 540.52 795.51 540.40 795.59 540.26 795.69 540.10 795.82 539.94 795.98 539.76 806.35 527.92 808.36 525.35 809.92 522.84 811.04 520.40 811.72 518.02 811.94 515.72 811.87 514.37 811.65 513.10 811.28 511.90 810.76 510.79 810.09 509.76 809.29 508.87 808.36 508.17 807.31 507.68 806.14 507.38 804.84 507.28 803.91 507.33 803.00 507.50 802.13 507.76 801.28 508.14 800.46 508.62 799.70 509.20 799.03 509.87 798.44 510.62 797.94 511.45 797.53 512.37 797.61 512.35 797.72 512.34 797.87 512.33 798.04 512.32 798.25 512.32 798.77 512.35 799.24 512.46 799.67 512.63 800.05 512.87 800.38 513.18 800.65 513.53 800.87 513.91 801.02 514.31 801.11 514.74 801.14 515.19 801.10 515.75 800.99 516.25 800.80 516.68 800.53 517.06 800.19 517.37 799.81 517.63 799.43 517.82 799.06 517.97 798.68 518.05 798.31 518.08 798.15 518.08 797.98 518.07 797.81 518.05 797.62 518.03 797.43 518.00 797.22 517.94 796.99 517.83 796.73 517.66 796.46 517.44 796.16 517.16 795.88 516.83 795.66 516.45 795.51 516.02 795.41 515.55 795.38 515.03 795.50 513.64 795.84 512.31 796.42 511.04 797.22 509.82 798.26 508.66 799.47 507.65 800.80 506.86 802.25 506.29 803.82 505.95 805.52 505.84 807.43 505.95 809.21 506.28 810.86 506.84 812.36 507.61 813.73 508.61 814.90 509.78 815.81 511.08 816.46 512.50 816.85 514.05 816.98 515.72 816.96 516.37 816.90 517.01 816.81 517.64 816.67 518.25 816.49 518.86 816.29 519.44 816.08 520.00 815.85 520.53 815.61 521.03 815.36 521.51 815.05 522.00 814.66 522.55 814.19 523.15 813.62 523.82 812.97 524.53 812.29 525.25 811.64 525.93 811.01 526.57 810.41 527.16 809.84 527.71 809.21 528.30 808.45 529.00 807.54 529.83 806.50 530.77 805.32 531.84 799.59 537.52 809.25 537.52 810.97 537.50 812.34 537.45 813.35 537.37 814.02 537.25 814.34 537.09 814.56 536.64 814.78 535.93 815.02 534.94 815.27 533.69 815.53 532.18 816.97 532.18 815.36 541.84 Z" />
<polyline points="1017.50 935.00 1017.50 895.00" fill="none" stroke="rgb(0,0,0)" stroke-width="5" />
<path fill="rgb(0,0,0)" stroke="rgb(0,0,0)" stroke-width="0" d=" M 640.67 1367.32 L 641.11 1364.27 642.44 1361.50 644.64 1359.02 647.72 1356.81 651.68 1354.89 649.16 1353.78 647.20 1352.45 645.80 1350.90 644.96 1349.13 644.68 1347.15 644.87 1345.11 645.42 1343.19 646.34 1341.39 647.63 1339.71 649.29 1338.15 651.20 1336.80 653.22 1335.75 655.37 1335.00 657.65 1334.55 660.04 1334.40 661.09 1334.45 662.09 1334.59 663.03 1334.83 663.92 1335.16 664.76 1335.58 665.53 1336.08 666.22 1336.62 666.82 1337.22 667.34 1337.86 667.77 1338.55 668.14 1339.26 668.47 1339.93 668.76 1340.58 669.01 1341.21 669.21 1341.81 669.38 1342.38 669.51 1342.92 669.61 1343.43 669.66 1343.92 669.68 1344.38 669.66 1344.88 669.58 1345.36 669.45 1345.81 669.27 1346.23 669.04 1346.63 668.78 1346.98 668.50 1347.25 668.21 1347.45 667.91 1347.56 667.59 1347.60 667.22 1347.54 666.94 1347.34 666.74 1347.02 666.61 1346.57 666.57 1345.99 666.58 1345.93 666.58 1345.84 666.59 1345.71 666.61 1345.55 666.63 1345.35 666.65 1345.14 666.66 1344.93 666.67 1344.74 666.68 1344.55 666.68 1344.38 666.60 1343.04 666.37 1341.82 665.97 1340.71 665.42 1339.72 664.71 1338.84 663.88 1338.11 662.99 1337.54 662.02 1337.13 660.99 1336.88 659.89 1336.80 658.45 1336.93 657.08 1337.34 655.80 1338.01 654.58 1338.95 653.44 1340.17 652.45 1341.52 651.68 1342.88 651.12 1344.26 650.79 1345.65 650.68 1347.06 650.75 1348.15 650.96 1349.17 651.32 1350.10 651.81 1350.96 652.45 1351.74 653.14 1352.41 653.82 1352.93 654.47 1353.30 655.10 1353.53 655.71 1353.60 656.07 1353.58 656.50 1353.50 657.03 1353.38 657.63 1353.22 658.32 1353.00 659.00 1352.78 659.60 1352.62 660.12 1352.50 660.55 1352.42 660.90 1352.40 661.58 1352.48 662.11 1352.71 662.49 1353.09 662.72 1353.62 662.79 1354.31 662.76 1354.75 662.67 1355.16 662.51 1355.56 662.29 1355.94 662.00 1356.31 661.67 1356.63 661.31 1356.88 660.91 1357.06 660.49 1357.16 660.03 1357.20 659.68 1357.18 659.23 1357.10 658.71 1356.98 658.09 1356.82 657.38 1356.60 656.68 1356.38 656.09 1356.22 655.62 1356.10 655.25 1356.02 654.99 1356.00 654.11 1356.14 653.15 1356.54 652.11 1357.22 650.98 1358.17 649.78 1359.38 648.67 1360.79 647.80 1362.31 647.17 1363.93 646.80 1365.66 646.67 1367.49 646.72 1368.47 646.88 1369.41 647.14 1370.31 647.50 1371.17 647.97 1371.99 648.55 1372.72 649.26 1373.28 650.08 1373.68 651.02 1373.92 652.09 1374.00 653.36 1373.92 654.67 1373.69 656.00 1373.29 657.36 1372.75 658.74 1372.04 660.10 1371.19 661.36 1370.21 662.53 1369.11 663.60 1367.87 664.59 1366.50 665.00 1365.94 665.34 1365.50 665.60 1365.18 665.80 1364.98 665.93 1364.89 666.05 1364.86 666.16 1364.87 666.27 1364.91 666.38 1364.98 666.48 1365.07 666.57 1365.20 666.64 1365.33 666.69 1365.48 666.72 1365.65 666.73 1365.83 666.72 1366.03 666.67 1366.22 666.61 1366.42 666.51 1366.63 666.39 1366.84 665.59 1368.23 664.60 1369.59 663.41 1370.90 662.03 1372.17 660.44 1373.39 658.72 1374.47 656.94 1375.32 655.09 1375.92 653.18 1376.28 651.20 1376.40 649.57 1376.31 648.02 1376.03 646.55 1375.56 645.16 1374.91 643.85 1374.07 642.70 1373.06 641.81 1371.88 641.18 1370.53 640.79 1369.01 640.67 1367.32 Z" />
<path fill="rgb(0,0,0)" stroke="rgb(0,0,0)" stroke-width="0" d=" M 672.00 1383.53 L 672.03 1383.19 672.10 1382.87 672.23 1382.57 672.40 1382.31 672.63 1382.07 672.89 1381.86 673.17 1381.70 673.46 1381.59 673.77 1381.52 674.10 1381.50 674.42 1381.55 674.68 1381.69 674.86 1381.93 674.96 1382.26 675.00 1382.69 674.99 1382.90 674.96 1383.12 674.91 1383.33 674.84 1383.55 674.75 1383.77 674.63 1383.97 674.50 1384.15 674.34 1384.30 674.16 1384.41 673.95 1384.50 674.20 1384.68 674.46 1384.82 674.75 1384.92 675.07 1384.98 675.41 1385.00 675.42 1385.00 675.44 1385.00 675.45 1385.00 675.47 1385.00 675.48 1385.00 675.80 1384.98 676.10 1384.93 676.39 1384.84 676.66 1384.71 676.91 1384.55 677.16 1384.35 677.39 1384.11 677.60 1383.84 677.80 1383.52 677.99 1383.16 678.16 1382.80 678.31 1382.44 678.44 1382.11 678.55 1381.78 678.64 1381.47 678.72 1381.15 678.82 1380.79 678.92 1380.40 679.04 1379.96 679.16 1379.48 679.36 1378.74 679.55 1378.02 679.73 1377.32 679.91 1376.64 680.09 1375.98 680.39 1374.79 680.61 1373.78 680.78 1372.95 680.87 1372.31 680.91 1371.86 680.89 1371.43 680.83 1371.05 680.73 1370.70 680.59 1370.39 680.41 1370.12 680.19 1369.90 679.95 1369.72 679.68 1369.60 679.38 1369.52 679.05 1369.50 678.54 1369.55 678.03 1369.68 677.52 1369.91 677.01 1370.22 676.50 1370.62 676.01 1371.12 675.57 1371.69 675.17 1372.34 674.82 1373.08 674.51 1373.90 674.46 1374.06 674.42 1374.19 674.39 1374.29 674.35 1374.37 674.32 1374.41 674.29 1374.44 674.23 1374.47 674.16 1374.49 674.07 1374.50 673.96 1374.50 673.80 1374.49 673.67 1374.44 673.58 1374.37 673.53 1374.27 673.51 1374.13 673.52 1373.97 673.57 1373.76 673.64 1373.51 673.75 1373.22 673.89 1372.88 674.05 1372.53 674.23 1372.16 674.44 1371.78 674.67 1371.40 674.92 1371.00 675.20 1370.61 675.52 1370.24 675.88 1369.89 676.27 1369.56 676.70 1369.25 677.15 1368.98 677.62 1368.77 678.09 1368.62 678.58 1368.53 679.07 1368.50 680.07 1368.61 680.93 1368.94 681.66 1369.49 682.25 1370.26 682.70 1371.25 682.90 1370.88 683.15 1370.51 683.43 1370.14 683.75 1369.78 684.10 1369.41 684.49 1369.08 684.92 1368.83 685.38 1368.65 685.88 1368.54 686.41 1368.50 686.83 1368.52 687.25 1368.58 687.67 1368.68 688.08 1368.82 688.49 1369.00 688.86 1369.22 689.15 1369.50 689.35 1369.84 689.47 1370.23 689.52 1370.68 689.49 1371.02 689.43 1371.32 689.32 1371.60 689.18 1371.83 689.00 1372.04 688.79 1372.20 688.58 1372.33 688.38 1372.43 688.17 1372.48 687.96 1372.50 687.68 1372.49 687.42 1372.45 687.20 1372.38 687.02 1372.30 686.86 1372.18 686.73 1372.05 686.63 1371.91 686.56 1371.78 686.52 1371.63 686.51 1371.48 686.51 1371.42 686.51 1371.35 686.52 1371.28 686.54 1371.20 686.55 1371.12 686.58 1371.02 686.64 1370.92 686.73 1370.79 686.85 1370.65 687.00 1370.49 687.17 1370.34 687.37 1370.21 687.59 1370.10 687.84 1370.01 688.12 1369.95 687.84 1369.79 687.53 1369.66 687.18 1369.57 686.79 1369.52 686.37 1369.50 685.54 1369.66 684.80 1370.13 684.14 1370.92 683.57 1372.02 683.09 1373.44 682.76 1374.85 682.46 1376.08 682.20 1377.14 681.98 1378.02 681.80 1378.72 681.53 1379.88 681.33 1380.85 681.18 1381.63 681.09 1382.22 681.06 1382.62 681.08 1383.11 681.15 1383.54 681.25 1383.91 681.40 1384.22 681.59 1384.46 681.80 1384.66 682.03 1384.81 682.27 1384.91 682.53 1384.98 682.80 1385.00 683.34 1384.95 683.87 1384.82 684.40 1384.59 684.93 1384.28 685.45 1383.87 685.95 1383.38 686.40 1382.80 686.81 1382.15 687.18 1381.41 687.51 1380.59 687.55 1380.43 687.59 1380.30 687.63 1380.20 687.67 1380.12 687.70 1380.08 687.74 1380.05 687.79 1380.03 687.87 1380.01 687.96 1380.00 688.06 1380.00 688.23 1380.01 688.35 1380.06 688.44 1380.13 688.49 1380.23 688.51 1380.36 688.49 1380.51 688.44 1380.70 688.37 1380.94 688.26 1381.22 688.12 1381.55 687.96 1381.90 687.78 1382.27 687.57 1382.64 687.34 1383.03 687.08 1383.44 686.79 1383.84 686.46 1384.22 686.09 1384.57 685.69 1384.91 685.24 1385.23 684.77 1385.51 684.28 1385.72 683.78 1385.88 683.25 1385.97 682.72 1386.00 682.31 1385.98 681.90 1385.90 681.49 1385.78 681.08 1385.61 680.66 1385.40 680.27 1385.12 679.92 1384.77 679.61 1384.35 679.35 1383.86 679.12 1383.29 678.49 1384.26 677.80 1385.02 677.05 1385.56 676.24 1385.89 675.38 1386.00 674.83 1385.97 674.33 1385.89 673.85 1385.76 673.41 1385.56 672.99 1385.32 672.64 1385.03 672.36 1384.71 672.16 1384.35 672.04 1383.96 672.00 1383.53 Z" />
<path fill="rgb(0,0,0)" stroke="rgb(0,0,0)" stroke-width="0" d=" M 630.67 1777.32 L 631.11 1774.27 632.44 1771.50 634.64 1769.02 637.72 1766.81 641.68 1764.89 639.16 1763.78 637.20 1762.45 635.80 1760.90 634.96 1759.13 634.68 1757.15 634.87 1755.11 635.42 1753.19 636.34 1751.39 637.63 1749.71 639.29 1748.15 641.20 1746.80 643.22 1745.75 645.37 1745.00 647.65 1744.55 650.04 1744.40 651.09 1744.45 652.09 1744.59 653.03 1744.83 653.92 1745.16 654.76 1745.58 655.53 1746.08 656.22 1746.62 656.82 1747.22 657.34 1747.86 657.77 1748.55 658.14 1749.26 658.47 1749.93 658.76 1750.58 659.01 1751.21 659.21 1751.81 659.38 1752.38 659.51 1752.92 659.61 1753.43 659.66 1753.92 659.68 1754.38 659.66 1754.88 659.58 1755.36 659.45 1755.81 659.27 1756.23 659.04 1756.63 658.78 1756.98 658.50 1757.25 658.21 1757.45 657.91 1757.56 657.59 1757.60 657.22 1757.54 656.94 1757.34 656.74 1757.02 656.61 1756.57 656.57 1755.99 656.58 1755.93 656.58 1755.84 656.59 1755.71 656.61 1755.55 656.63 1755.35 656.65 1755.14 656.66 1754.93 656.67 1754.74 656.68 1754.55 656.68 1754.38 656.60 1753.04 656.37 1751.82 655.97 1750.71 655.42 1749.72 654.71 1748.84 653.88 1748.11 652.99 1747.54 652.02 1747.13 650.99 1746.88 649.89 1746.80 648.45 1746.93 647.08 1747.34 645.80 1748.01 644.58 1748.95 643.44 1750.17 642.45 1751.52 641.68 1752.88 641.12 1754.26 640.79 1755.65 640.68 1757.06 640.75 1758.15 640.96 1759.17 641.32 1760.10 641.81 1760.96 642.45 1761.74 643.14 1762.41 643.82 1762.93 644.47 1763.30 645.10 1763.53 645.71 1763.60 646.07 1763.58 646.50 1763.50 647.03 1763.38 647.63 1763.22 648.32 1763.00 649.00 1762.78 649.60 1762.62 650.12 1762.50 650.55 1762.42 650.90 1762.40 651.58 1762.48 652.11 1762.71 652.49 1763.09 652.72 1763.62 652.79 1764.31 652.76 1764.75 652.67 1765.16 652.51 1765.56 652.29 1765.94 652.00 1766.31 651.67 1766.63 651.31 1766.88 650.91 1767.06 650.49 1767.16 650.03 1767.20 649.68 1767.18 649.23 1767.10 648.71 1766.98 648.09 1766.82 647.38 1766.60 646.68 1766.38 646.09 1766.22 645.62 1766.10 645.25 1766.02 644.99 1766.00 644.11 1766.14 643.15 1766.54 642.11 1767.22 640.98 1768.17 639.78 1769.38 638.67 1770.79 637.80 1772.31 637.17 1773.93 636.80 1775.66 636.67 1777.49 636.72 1778.47 636.88 1779.41 637.14 1780.31 637.50 1781.17 637.97 1781.99 638.55 1782.72 639.26 1783.28 640.08 1783.68 641.02 1783.92 642.09 1784.00 643.36 1783.92 644.67 1783.69 646.00 1783.29 647.36 1782.75 648.74 1782.04 650.10 1781.19 651.36 1780.21 652.53 1779.11 653.60 1777.87 654.59 1776.50 655.00 1775.94 655.34 1775.50 655.60 1775.18 655.80 1774.98 655.93 1774.89 656.05 1774.86 656.16 1774.87 656.27 1774.91 656.38 1774.98 656.48 1775.07 656.57 1775.20 656.64 1775.33 656.69 1775.48 656.72 1775.65 656.73 1775.83 656.72 1776.03 656.67 1776.22 656.61 1776.42 656.51 1776.63 656.39 1776.84 655.59 1778.23 654.60 1779.59 653.41 1780.90 652.03 1782.17 650.44 1783.39 648.72 1784.47 646.94 1785.32 645.09 1785.92 643.18 1786.28 641.20 1786.40 639.57 1786.31 638.02 1786.03 636.55 1785.56 635.16 1784.91 633.85 1784.07 632.70 1783.06 631.81 1781.88 631.18 1780.53 630.79 1779.01 630.67 1777.32 Z" />
<path fill="rgb(0,0,0)" stroke="rgb(0,0,0)" stroke-width="0" d=" M 662.39 1795.10 L 662.42 1794.88 662.51 1794.71 662.65 1794.59 662.86 1794.52 663.12 1794.50 664.25 1794.35 665.20 1793.98 665.95 1793.40 666.50 1792.61 666.86 1791.61 671.96 1771.21 672.00 1771.09 672.03 1770.98 672.05 1770.89 672.07 1770.82 672.07 1770.77 671.98 1770.67 671.70 1770.60 671.23 1770.54 670.57 1770.51 669.73 1770.50 669.56 1770.50 669.42 1770.50 669.30 1770.49 669.20 1770.49 669.12 1770.48 669.06 1770.48 668.99 1770.46 668.93 1770.44 668.87 1770.41 668.82 1770.38 668.77 1770.34 668.74 1770.30 668.71 1770.24 668.69 1770.18 668.69 1770.11 668.70 1769.95 668.72 1769.82 668.77 1769.72 668.83 1769.64 668.91 1769.59 669.02 1769.56 669.15 1769.53 669.32 1769.52 669.51 1769.50 669.73 1769.50 674.54 1769.50 674.77 1769.50 674.96 1769.52 675.11 1769.53 675.22 1769.56 675.29 1769.59 675.34 1769.65 675.40 1769.73 675.47 1769.84 675.54 1769.98 675.61 1770.15 682.79 1789.88 687.05 1772.98 687.11 1772.75 687.15 1772.55 687.18 1772.37 687.20 1772.22 687.21 1772.09 687.12 1771.54 686.84 1771.11 686.38 1770.79 685.73 1770.59 684.89 1770.50 684.64 1770.48 684.45 1770.44 684.31 1770.36 684.22 1770.25 684.20 1770.11 684.22 1769.89 684.31 1769.72 684.45 1769.60 684.64 1769.52 684.89 1769.50 685.15 1769.50 685.48 1769.51 685.86 1769.52 686.30 1769.53 686.79 1769.55 687.29 1769.56 687.74 1769.58 688.13 1769.59 688.46 1769.59 688.74 1769.59 689.02 1769.59 689.34 1769.59 689.72 1769.58 690.15 1769.56 690.63 1769.55 691.11 1769.53 691.53 1769.52 691.89 1769.51 692.20 1769.50 692.45 1769.50 692.64 1769.52 692.78 1769.57 692.88 1769.65 692.94 1769.77 692.96 1769.92 692.94 1770.13 692.87 1770.29 692.75 1770.41 692.59 1770.48 692.38 1770.50 691.17 1770.64 690.18 1770.96 689.40 1771.47 688.84 1772.17 688.48 1773.05 683.10 1794.77 683.04 1794.94 682.98 1795.10 682.92 1795.22 682.86 1795.31 682.80 1795.38 682.73 1795.42 682.65 1795.45 682.55 1795.48 682.43 1795.49 682.30 1795.50 682.15 1795.50 682.03 1795.48 681.92 1795.47 681.84 1795.44 681.78 1795.41 681.73 1795.35 681.68 1795.27 681.62 1795.16 681.56 1795.02 681.50 1794.84 672.88 1771.80 667.89 1791.62 667.85 1791.88 667.82 1792.11 667.79 1792.32 667.78 1792.50 667.77 1792.66 667.78 1792.79 667.78 1792.92 667.79 1793.03 667.80 1793.14 667.82 1793.23 667.84 1793.33 667.88 1793.43 667.92 1793.54 667.98 1793.65 668.05 1793.77 668.15 1793.89 668.26 1793.99 668.40 1794.09 668.56 1794.18 668.75 1794.25 668.96 1794.32 669.19 1794.38 669.45 1794.43 669.72 1794.47 670.02 1794.50 670.28 1794.52 670.49 1794.57 670.63 1794.65 670.72 1794.77 670.75 1794.91 670.72 1795.12 670.64 1795.29 670.50 1795.41 670.30 1795.48 670.05 1795.50 669.80 1795.50 669.49 1795.49 669.14 1795.48 668.73 1795.47 668.29 1795.45 667.84 1795.44 667.43 1795.42 667.08 1795.41 666.77 1795.41 666.51 1795.41 666.25 1795.41 665.94 1795.41 665.57 1795.42 665.16 1795.44 664.69 1795.45 664.23 1795.47 663.81 1795.48 663.46 1795.49 663.15 1795.50 662.90 1795.50 662.72 1795.48 662.57 1795.44 662.47 1795.36 662.41 1795.24 662.39 1795.10 Z" />
</svg>
