<?xml version="1.0" encoding="utf-8"?>
<!-- Created with "sPlan" (http://www.abacom-online.de) -->
<svg version="1.1" baseProfile="full"
xmlns="http://www.w3.org/2000/svg"
width="105mm" height="114mm"
viewBox="0 0 1050 1140">
<title>graph2</title>
<defs>
<style type="text/css">
<![CDATA[
polyline {stroke-linecap:round; stroke-linejoin:round}
polygon {stroke-linecap:round; stroke-linejoin:round}
path {stroke-linecap:round; stroke-linejoin:round}
circle {stroke-linecap:round; stroke-linejoin:round}
]]>
</style>
</defs>
<polyline points="77.50 980.00 227.50 980.00" fill="none" stroke="rgb(0,0,0)" stroke-width="5" />
<polyline points="277.50 980.00 427.50 980.00" fill="none" stroke="rgb(0,0,0)" stroke-width="5" />
<polyline points="227.50 830.00 227.50 1130.00" fill="none" stroke="rgb(0,0,0)" stroke-width="5" />
<polyline points="277.50 880.00 277.50 1080.00" fill="none" stroke="rgb(0,0,0)" stroke-width="5" />
<path fill="rgb(255,255,255)" stroke="rgb(0,0,0)" stroke-width="5" d=" M 165 518 L 340 518 340 592 165 592 165 518 Z" />
<polyline points="90.00 555.00 165.00 555.00" fill="none" stroke="rgb(0,0,0)" stroke-width="5" />
<polyline points="340.00 555.00 415.00 555.00" fill="none" stroke="rgb(0,0,0)" stroke-width="5" />
<path fill="rgb(0,0,0)" stroke="rgb(0,0,0)" stroke-width="0" d=" M 224.50 482.20 L 224.50 480.75 225.85 480.75 226.97 480.73 227.91 480.67 228.66 480.57 229.22 480.43 229.60 480.26 229.85 480.02 230.05 479.68 230.19 479.26 230.27 478.75 230.30 478.16 230.32 449.25 230.30 448.66 230.22 448.15 230.08 447.74 229.88 447.41 229.62 447.17 229.24 446.99 228.68 446.85 227.93 446.75 227.00 446.69 225.88 446.68 224.53 446.68 224.53 445.23 241.96 445.23 244.30 445.34 246.50 445.67 248.55 446.23 250.46 447.01 252.21 448.02 253.73 449.18 254.91 450.42 255.75 451.74 256.25 453.14 256.42 454.63 256.31 455.80 255.98 456.93 255.42 458.00 254.64 459.02 253.64 459.99 252.47 460.87 251.18 461.66 249.76 462.33 248.22 462.90 246.57 463.36 248.63 464.22 250.35 465.30 251.72 466.58 252.76 468.07 253.44 469.77 254.16 474.21 254.24 474.82 254.31 475.37 254.38 475.85 254.45 476.27 254.51 476.62 254.57 476.96 254.64 477.32 254.72 477.70 254.80 478.11 254.89 478.54 254.99 478.96 255.09 479.34 255.19 479.67 255.29 479.95 255.39 480.18 255.49 480.40 255.61 480.61 255.73 480.83 255.87 481.05 256.01 481.27 256.16 481.48 256.32 481.66 256.50 481.80 256.68 481.92 256.87 482.01 257.07 482.08 257.29 482.13 257.52 482.17 257.77 482.19 258.03 482.20 258.50 482.16 258.96 482.04 259.41 481.84 259.84 481.57 260.25 481.21 260.63 480.76 260.94 480.20 261.18 479.54 261.36 478.78 261.48 477.91 261.54 477.63 261.64 477.41 261.79 477.25 261.97 477.16 262.19 477.12 262.45 477.16 262.66 477.26 262.81 477.42 262.90 477.65 262.93 477.95 262.92 478.25 262.89 478.55 262.85 478.86 262.79 479.19 262.72 479.52 262.62 479.86 262.50 480.22 262.35 480.58 262.18 480.96 261.99 481.34 261.76 481.72 261.49 482.08 261.16 482.41 260.79 482.71 260.38 482.99 259.92 483.23 259.44 483.41 258.93 483.54 258.39 483.62 257.83 483.65 256.16 483.56 254.62 483.28 253.22 482.81 251.95 482.16 250.82 481.32 250.40 480.91 250.02 480.47 249.70 480.01 249.43 479.53 249.20 479.02 249.02 478.51 248.87 478.03 248.75 477.56 248.66 477.12 248.61 476.69 248.58 476.23 248.56 475.67 248.54 475.01 248.54 474.25 248.54 473.39 248.52 472.17 248.48 471.10 248.42 470.18 248.32 469.40 248.20 468.76 248.02 468.20 247.75 467.64 247.39 467.08 246.94 466.52 246.40 465.97 245.55 465.29 244.60 464.76 243.55 464.38 242.39 464.15 241.13 464.08 234.66 464.08 234.65 478.12 234.68 478.72 234.76 479.23 234.90 479.65 235.10 479.99 235.35 480.23 235.73 480.42 236.29 480.56 237.04 480.67 237.98 480.73 239.10 480.75 240.45 480.75 240.45 482.20 239.48 482.15 238.20 482.11 236.60 482.09 234.68 482.07 232.45 482.06 230.22 482.07 228.31 482.09 226.72 482.11 225.45 482.15 224.50 482.20 Z M 234.66 462.62 L 240.91 462.62 242.08 462.60 243.16 462.51 244.17 462.38 245.10 462.18 245.95 461.93 246.72 461.64 247.41 461.29 248.00 460.90 248.52 460.47 248.95 459.99 249.31 459.49 249.62 458.99 249.88 458.49 250.10 457.98 250.27 457.48 250.39 456.96 250.49 456.41 250.57 455.84 250.61 455.25 250.62 454.63 250.61 453.89 250.55 453.20 250.46 452.54 250.34 451.92 250.18 451.34 249.98 450.80 249.74 450.31 249.46 449.86 249.14 449.46 248.78 449.10 248.39 448.78 248.01 448.48 247.62 448.20 247.24 447.95 246.86 447.73 246.45 447.53 246.01 447.35 245.52 447.21 244.98 447.08 244.41 446.99 243.83 446.91 243.29 446.84 242.79 446.79 242.33 446.75 241.90 446.73 241.47 446.71 240.99 446.69 240.46 446.68 239.88 446.68 239.26 446.68 238.24 446.68 237.40 446.69 236.73 446.71 236.24 446.74 235.92 446.78 235.68 446.81 235.47 446.86 235.30 446.93 235.15 447.01 235.04 447.12 234.95 447.23 234.88 447.35 234.81 447.47 234.77 447.60 234.74 447.73 234.71 447.88 234.70 448.06 234.68 448.28 234.68 448.53 234.67 448.82 Z M 268.02 451.03 L 268.02 449.58 270.47 449.43 272.67 449.01 274.62 448.30 276.32 447.31 277.78 446.04 278.08 446.05 278.34 446.08 278.53 446.12 278.68 446.18 278.76 446.26 278.82 446.37 278.86 446.55 278.89 446.80 278.90 447.10 278.91 447.47 278.88 478.09 278.91 478.70 279.01 479.22 279.18 479.65 279.42 479.99 279.72 480.24 280.18 480.42 280.86 480.57 281.78 480.67 282.92 480.73 284.29 480.75 286.13 480.75 286.13 482.20 285.15 482.15 283.78 482.11 282.00 482.09 279.82 482.07 277.24 482.06 274.66 482.07 272.48 482.09 270.70 482.11 269.33 482.15 268.36 482.20 268.36 480.75 270.12 480.75 271.40 480.73 272.47 480.67 273.33 480.57 273.98 480.43 274.42 480.26 274.72 480.01 274.95 479.68 275.12 479.25 275.22 478.73 275.25 478.11 275.27 449.80 274.06 450.24 272.73 450.58 271.28 450.83 269.71 450.98 268.02 451.03 Z" />
<path fill="rgb(255,255,255)" stroke="rgb(0,0,0)" stroke-width="5" d=" M 665 518 L 840 518 840 592 665 592 665 518 Z" />
<polyline points="590.00 555.00 665.00 555.00" fill="none" stroke="rgb(0,0,0)" stroke-width="5" />
<polyline points="840.00 555.00 915.00 555.00" fill="none" stroke="rgb(0,0,0)" stroke-width="5" />
<path fill="rgb(0,0,0)" stroke="rgb(0,0,0)" stroke-width="0" d=" M 724.50 482.20 L 724.50 480.75 725.85 480.75 726.97 480.73 727.91 480.67 728.66 480.57 729.22 480.43 729.60 480.26 729.85 480.02 730.05 479.68 730.19 479.26 730.27 478.75 730.30 478.16 730.32 449.25 730.30 448.66 730.22 448.15 730.08 447.74 729.88 447.41 729.62 447.17 729.24 446.99 728.68 446.85 727.93 446.75 727.00 446.69 725.88 446.68 724.53 446.68 724.53 445.23 741.96 445.23 744.30 445.34 746.50 445.67 748.55 446.23 750.46 447.01 752.21 448.02 753.73 449.18 754.91 450.42 755.75 451.74 756.25 453.14 756.42 454.63 756.31 455.80 755.98 456.93 755.42 458.00 754.64 459.02 753.64 459.99 752.47 460.87 751.17 461.66 749.76 462.33 748.22 462.90 746.57 463.36 748.63 464.22 750.35 465.30 751.72 466.58 752.75 468.07 753.44 469.77 754.16 474.21 754.24 474.82 754.31 475.37 754.38 475.85 754.45 476.27 754.51 476.62 754.57 476.96 754.64 477.32 754.72 477.70 754.80 478.11 754.89 478.54 754.99 478.96 755.09 479.34 755.18 479.67 755.28 479.95 755.39 480.18 755.49 480.40 755.61 480.61 755.73 480.83 755.87 481.05 756.01 481.27 756.16 481.48 756.32 481.66 756.50 481.80 756.68 481.92 756.87 482.01 757.07 482.08 757.29 482.13 757.52 482.17 757.77 482.19 758.03 482.20 758.50 482.16 758.96 482.04 759.41 481.84 759.84 481.57 760.25 481.21 760.63 480.76 760.94 480.20 761.18 479.54 761.36 478.78 761.47 477.91 761.54 477.63 761.64 477.41 761.79 477.25 761.97 477.16 762.19 477.12 762.45 477.16 762.66 477.26 762.81 477.42 762.90 477.65 762.92 477.95 762.92 478.25 762.89 478.55 762.85 478.86 762.79 479.19 762.72 479.52 762.62 479.86 762.50 480.22 762.35 480.58 762.18 480.96 761.99 481.34 761.76 481.72 761.48 482.08 761.16 482.41 760.79 482.71 760.38 482.99 759.92 483.23 759.44 483.41 758.93 483.54 758.39 483.62 757.83 483.65 756.15 483.56 754.62 483.28 753.21 482.81 751.95 482.16 750.82 481.32 750.40 480.91 750.02 480.47 749.70 480.01 749.43 479.53 749.20 479.02 749.02 478.51 748.86 478.03 748.75 477.56 748.66 477.12 748.61 476.69 748.58 476.23 748.56 475.67 748.54 475.01 748.54 474.25 748.54 473.39 748.52 472.17 748.48 471.10 748.42 470.18 748.32 469.40 748.20 468.76 748.02 468.20 747.75 467.64 747.39 467.08 746.94 466.52 746.40 465.97 745.55 465.29 744.60 464.76 743.55 464.38 742.39 464.15 741.13 464.08 734.66 464.08 734.65 478.12 734.68 478.72 734.76 479.23 734.90 479.65 735.10 479.99 735.35 480.23 735.73 480.42 736.29 480.56 737.04 480.67 737.98 480.73 739.10 480.75 740.45 480.75 740.45 482.20 739.48 482.15 738.20 482.11 736.60 482.09 734.68 482.07 732.45 482.06 730.22 482.07 728.31 482.09 726.72 482.11 725.45 482.15 724.50 482.20 Z M 734.66 462.62 L 740.91 462.62 742.08 462.60 743.16 462.51 744.17 462.38 745.10 462.18 745.95 461.93 746.72 461.64 747.41 461.29 748.00 460.90 748.52 460.47 748.95 459.99 749.31 459.49 749.62 458.99 749.88 458.49 750.10 457.98 750.27 457.48 750.39 456.96 750.49 456.41 750.57 455.84 750.61 455.25 750.62 454.63 750.60 453.89 750.55 453.20 750.46 452.54 750.34 451.92 750.18 451.34 749.98 450.80 749.74 450.31 749.46 449.86 749.14 449.46 748.78 449.10 748.39 448.78 748.01 448.48 747.62 448.20 747.24 447.95 746.86 447.73 746.45 447.53 746.00 447.35 745.52 447.21 744.98 447.08 744.41 446.99 743.83 446.91 743.29 446.84 742.79 446.79 742.33 446.75 741.90 446.73 741.47 446.71 740.99 446.69 740.46 446.68 739.88 446.68 739.26 446.68 738.24 446.68 737.40 446.69 736.73 446.71 736.24 446.74 735.92 446.78 735.68 446.81 735.47 446.86 735.30 446.93 735.15 447.01 735.04 447.12 734.95 447.23 734.87 447.35 734.81 447.47 734.77 447.60 734.73 447.73 734.71 447.88 734.69 448.06 734.68 448.28 734.67 448.53 734.67 448.82 Z M 765.82 482.20 L 765.83 481.82 765.84 481.50 765.86 481.23 765.89 481.03 765.92 480.87 765.97 480.75 766.05 480.60 766.16 480.45 766.29 480.28 766.45 480.10 776.89 468.19 778.92 465.59 780.49 463.07 781.62 460.61 782.29 458.22 782.52 455.90 782.45 454.54 782.22 453.26 781.85 452.06 781.33 450.94 780.66 449.90 779.85 449.00 778.92 448.30 777.86 447.80 776.68 447.50 775.37 447.40 774.43 447.45 773.52 447.62 772.64 447.89 771.79 448.27 770.96 448.75 770.20 449.34 769.52 450.01 768.93 450.76 768.43 451.60 768.01 452.52 768.09 452.50 768.20 452.49 768.35 452.48 768.53 452.48 768.74 452.48 769.26 452.51 769.74 452.61 770.16 452.78 770.55 453.03 770.88 453.34 771.15 453.69 771.37 454.07 771.52 454.48 771.62 454.91 771.65 455.36 771.61 455.93 771.49 456.43 771.30 456.87 771.03 457.25 770.69 457.56 770.31 457.82 769.93 458.02 769.55 458.16 769.17 458.25 768.79 458.28 768.63 458.27 768.47 458.26 768.29 458.25 768.10 458.22 767.91 458.20 767.70 458.14 767.47 458.02 767.21 457.85 766.93 457.63 766.63 457.35 766.35 457.01 766.13 456.63 765.97 456.21 765.88 455.73 765.85 455.21 765.96 453.81 766.31 452.47 766.89 451.18 767.70 449.96 768.74 448.79 769.96 447.77 771.30 446.97 772.76 446.40 774.35 446.06 776.05 445.95 777.98 446.06 779.78 446.40 781.43 446.96 782.95 447.74 784.32 448.74 785.50 449.92 786.42 451.23 787.07 452.66 787.47 454.21 787.60 455.90 787.58 456.55 787.52 457.20 787.42 457.83 787.28 458.45 787.10 459.06 786.90 459.65 786.69 460.21 786.46 460.74 786.21 461.25 785.96 461.73 785.66 462.23 785.26 462.78 784.78 463.39 784.22 464.05 783.56 464.77 782.87 465.50 782.21 466.18 781.58 466.82 780.98 467.42 780.40 467.97 779.77 468.56 779.00 469.27 778.09 470.10 777.04 471.06 775.85 472.13 770.08 477.85 779.82 477.85 781.54 477.83 782.92 477.78 783.94 477.70 784.61 477.57 784.94 477.42 785.15 476.97 785.38 476.25 785.62 475.26 785.87 474.00 786.14 472.47 787.59 472.47 785.97 482.20 Z" />
<polyline points="502.50 655.00 502.50 730.00" fill="none" stroke="rgb(0,0,0)" stroke-width="5" />
<circle cx="502.47" cy="792.75" r="62.09" fill="rgb(255,255,255)" stroke="rgb(0,0,0)" stroke-width="5" />
<polyline points="502.50 855.00 502.50 930.00" fill="none" stroke="rgb(0,0,0)" stroke-width="5" />
<path fill="rgb(0,0,0)" stroke="rgb(0,0,0)" stroke-width="0" d=" M 474.41 767.54 L 475.26 767.63 475.92 767.91 476.39 768.39 476.67 769.05 476.76 769.90 476.74 786.36 495.56 786.36 495.59 769.90 495.68 769.05 495.96 768.39 496.43 767.91 497.09 767.63 497.94 767.54 498.78 767.63 499.44 767.91 499.91 768.39 500.19 769.05 500.29 769.90 500.24 812.25 500.14 813.10 499.86 813.75 499.39 814.22 498.73 814.51 497.89 814.60 497.04 814.51 496.38 814.22 495.91 813.75 495.63 813.10 495.54 812.25 495.56 791.07 476.74 791.07 476.71 812.25 476.62 813.10 476.34 813.75 475.87 814.22 475.21 814.51 474.36 814.60 473.51 814.51 472.85 814.22 472.38 813.75 472.09 813.10 472.00 812.25 472.05 769.90 472.14 769.05 472.43 768.39 472.90 767.91 473.56 767.63 474.41 767.54 Z M 514.36 772.25 L 514.31 812.25 514.22 813.10 513.94 813.75 513.47 814.22 512.81 814.51 511.96 814.60 511.11 814.51 510.45 814.22 509.98 813.75 509.69 813.10 509.60 812.25 509.65 769.90 509.74 769.05 510.03 768.39 510.50 767.91 511.16 767.63 512.01 767.54 530.84 767.54 531.68 767.63 532.34 767.91 532.81 768.39 533.09 769.05 533.19 769.90 533.09 770.75 532.81 771.40 532.34 771.87 531.68 772.16 530.84 772.25 Z" />
<polyline points="327.50 155.00 15.00 155.00 15.00 980.00 77.50 980.00" fill="none" stroke="rgb(0,0,0)" stroke-width="5" />
<polyline points="90.00 555.00 15.00 555.00" fill="none" stroke="rgb(0,0,0)" stroke-width="5" />
<polyline points="415.00 555.00 590.00 555.00" fill="none" stroke="rgb(0,0,0)" stroke-width="5" />
<polyline points="502.50 655.00 502.50 555.00" fill="none" stroke="rgb(0,0,0)" stroke-width="5" />
<polyline points="427.50 980.00 502.50 980.00 502.50 930.00" fill="none" stroke="rgb(0,0,0)" stroke-width="5" />
<polyline points="915.00 555.00 1040.00 555.00 1040.00 155.00 677.50 155.00" fill="none" stroke="rgb(0,0,0)" stroke-width="5" />
<circle cx="503" cy="555" r="6" fill="rgb(0,0,0)" stroke="none" stroke-width="2" />
<circle cx="15" cy="555" r="6" fill="rgb(0,0,0)" stroke="none" stroke-width="2" />
<polyline points="327.50 155.00 477.50 155.00" fill="none" stroke="rgb(0,0,0)" stroke-width="5" />
<polyline points="527.50 155.00 677.50 155.00" fill="none" stroke="rgb(0,0,0)" stroke-width="5" />
<polyline points="477.50 5.00 477.50 305.00" fill="none" stroke="rgb(0,0,0)" stroke-width="5" />
<polyline points="527.50 55.00 527.50 255.00" fill="none" stroke="rgb(0,0,0)" stroke-width="5" />
<polygon points="493 585 503 615 513 585 503 585" fill="rgb(0,0,0)" stroke="rgb(0,0,0)" stroke-width="5" />
<polygon points="453 565 483 555 453 545 453 555" fill="rgb(0,0,0)" stroke="rgb(0,0,0)" stroke-width="5" />
<polygon points="553 565 523 555 553 545 553 555" fill="rgb(0,0,0)" stroke="rgb(0,0,0)" stroke-width="5" />
<polygon points="5 615 15 585 25 615 15 615" fill="rgb(0,0,0)" stroke="rgb(0,0,0)" stroke-width="5" />
<polygon points="45 565 75 555 45 545 45 555" fill="rgb(0,0,0)" stroke="rgb(0,0,0)" stroke-width="5" />
<polygon points="5 523 15 493 25 523 15 523" fill="rgb(0,0,0)" stroke="rgb(0,0,0)" stroke-width="5" />
<path fill="rgb(0,0,0)" stroke="rgb(0,0,0)" stroke-width="0" d=" M 41.77 521.84 L 41.77 520.40 43.57 520.21 45.08 519.72 46.30 518.93 47.24 517.84 47.89 516.46 59.25 484.05 59.34 483.80 59.42 483.59 59.51 483.42 59.61 483.28 59.70 483.17 59.81 483.10 59.95 483.04 60.12 482.99 60.32 482.97 60.55 482.96 60.68 482.96 60.79 482.97 60.90 482.98 60.99 482.99 61.08 483.01 61.15 483.04 61.22 483.07 61.29 483.12 61.35 483.18 61.41 483.25 61.46 483.33 61.50 483.39 61.54 483.45 61.57 483.50 61.59 483.55 61.62 483.60 61.65 483.67 61.70 483.78 61.75 483.90 61.81 484.05 73.58 518.06 73.77 518.60 74.00 519.06 74.26 519.44 74.56 519.74 74.89 519.96 75.31 520.12 75.85 520.24 76.53 520.33 77.33 520.38 78.26 520.40 79.23 520.40 79.23 521.84 77.84 521.79 76.42 521.75 74.99 521.73 73.54 521.71 72.06 521.71 69.86 521.71 67.97 521.73 66.39 521.75 65.13 521.79 64.18 521.84 64.18 520.40 65.81 520.33 67.09 520.12 67.99 519.76 68.54 519.27 68.72 518.63 68.71 518.56 68.70 518.45 68.66 518.28 68.62 518.07 68.56 517.80 65.68 508.88 52.17 508.88 49.62 516.52 49.58 516.63 49.55 516.77 49.53 516.95 49.52 517.16 49.52 517.41 49.56 517.88 49.69 518.33 49.90 518.76 50.20 519.15 50.59 519.52 51.05 519.83 51.59 520.08 52.19 520.26 52.87 520.36 53.62 520.40 53.62 521.84 51.69 521.79 50.09 521.75 48.83 521.73 47.91 521.71 47.32 521.71 46.53 521.71 45.58 521.73 44.46 521.75 43.19 521.79 41.77 521.84 Z M 52.76 507.44 L 65.08 507.44 58.91 490.02 Z" />
<path fill="rgb(0,0,0)" stroke="rgb(0,0,0)" stroke-width="0" d=" M 486.18 521.84 L 486.18 520.40 487.48 520.40 488.58 520.38 489.49 520.32 490.22 520.22 490.77 520.09 491.13 519.91 491.38 519.67 491.57 519.34 491.70 518.92 491.79 518.42 491.81 517.82 491.84 489.11 491.81 488.53 491.73 488.03 491.59 487.61 491.40 487.29 491.15 487.05 490.78 486.87 490.23 486.74 489.51 486.64 488.60 486.58 487.52 486.56 486.21 486.56 486.21 485.12 505.89 485.12 507.86 485.23 509.69 485.54 511.39 486.07 512.95 486.81 514.37 487.76 515.59 488.85 516.54 490.00 517.21 491.22 517.62 492.50 517.76 493.85 517.66 495.01 517.36 496.12 516.86 497.18 516.17 498.20 515.28 499.17 514.24 500.04 513.08 500.80 511.82 501.42 510.44 501.92 508.96 502.29 510.66 502.58 512.24 503.05 513.70 503.71 515.05 504.55 516.27 505.58 517.32 506.73 518.14 507.95 518.72 509.23 519.07 510.59 519.18 512.01 519.05 513.54 518.64 515.00 517.96 516.38 517.02 517.67 515.80 518.89 514.38 519.95 512.82 520.78 511.11 521.37 509.26 521.72 507.27 521.84 Z M 496.13 518.20 L 496.15 518.72 496.20 519.17 496.28 519.53 496.39 519.82 496.53 520.01 496.75 520.15 497.09 520.26 497.54 520.34 498.12 520.38 498.81 520.40 505.65 520.40 507.16 520.30 508.53 519.98 509.78 519.46 510.89 518.74 511.86 517.80 512.68 516.74 513.32 515.62 513.77 514.45 514.05 513.22 514.14 511.95 514.06 510.66 513.82 509.42 513.43 508.21 512.87 507.04 512.15 505.90 511.29 504.90 510.28 504.12 509.14 503.57 507.86 503.23 506.44 503.12 496.14 503.12 Z M 496.14 501.68 L 504.03 501.68 505.63 501.58 507.07 501.29 508.36 500.80 509.49 500.11 510.47 499.22 511.28 498.22 511.91 497.18 512.36 496.11 512.63 495.00 512.72 493.85 512.64 492.82 512.43 491.82 512.07 490.83 511.57 489.86 510.93 488.91 510.15 488.06 509.22 487.41 508.14 486.94 506.92 486.65 505.56 486.56 498.82 486.56 498.14 486.57 497.57 486.62 497.12 486.69 496.78 486.79 496.57 486.92 496.42 487.11 496.31 487.37 496.23 487.72 496.18 488.16 496.16 488.67 Z" />
<path fill="rgb(0,0,0)" stroke="rgb(0,0,0)" stroke-width="0" d=" M 62.16 331.84 L 62.16 330.40 63.39 330.40 64.35 330.38 65.15 330.32 65.80 330.22 66.28 330.09 66.60 329.91 66.81 329.67 66.98 329.34 67.10 328.92 67.18 328.42 67.20 327.82 67.22 299.11 67.20 298.53 67.13 298.03 67.01 297.61 66.84 297.29 66.62 297.05 66.30 296.87 65.81 296.74 65.17 296.64 64.38 296.58 63.42 296.56 62.19 296.56 62.19 295.12 63.06 295.17 64.24 295.21 65.76 295.23 67.60 295.25 69.78 295.26 71.94 295.25 73.77 295.23 75.28 295.21 76.46 295.17 77.31 295.12 77.31 296.56 76.11 296.56 75.14 296.58 74.33 296.64 73.68 296.74 73.20 296.87 72.88 297.05 72.66 297.29 72.49 297.61 72.37 298.03 72.29 298.53 72.26 299.11 72.24 327.82 72.26 328.41 72.34 328.91 72.46 329.32 72.63 329.65 72.84 329.89 73.16 330.08 73.65 330.22 74.30 330.32 75.10 330.38 76.08 330.40 77.28 330.40 77.28 331.84 76.42 331.79 75.23 331.75 73.71 331.73 71.87 331.71 69.70 331.70 67.54 331.71 65.71 331.73 64.20 331.75 63.02 331.79 62.16 331.84 Z" />
<path fill="rgb(0,0,0)" stroke="rgb(0,0,0)" stroke-width="0" d=" M 83.52 324.50 L 83.52 323.50 85.20 323.40 86.72 323.11 88.06 322.62 89.24 321.94 90.24 321.06 90.45 321.07 90.63 321.09 90.76 321.12 90.86 321.16 90.92 321.21 90.96 321.29 90.99 321.42 91.01 321.58 91.02 321.79 91.02 322.05 91.00 343.16 91.02 343.59 91.09 343.95 91.21 344.24 91.38 344.48 91.59 344.65 91.90 344.77 92.37 344.87 93.00 344.94 93.79 344.99 94.73 345.00 96.00 345.00 96.00 346.00 95.33 345.97 94.38 345.94 93.16 345.92 91.65 345.91 89.87 345.91 88.09 345.91 86.59 345.92 85.36 345.94 84.42 345.97 83.75 346.00 83.75 345.00 84.96 345.00 85.84 344.99 86.58 344.95 87.18 344.88 87.62 344.78 87.93 344.66 88.13 344.49 88.29 344.26 88.41 343.96 88.48 343.60 88.50 343.18 88.52 323.66 87.68 323.96 86.76 324.20 85.76 324.36 84.68 324.47 83.52 324.50 Z" />
<path fill="rgb(0,0,0)" stroke="rgb(0,0,0)" stroke-width="0" d=" M 42.16 941.84 L 42.16 940.40 43.39 940.40 44.35 940.38 45.15 940.32 45.80 940.22 46.28 940.09 46.60 939.91 46.81 939.67 46.98 939.34 47.10 938.92 47.18 938.42 47.20 937.82 47.22 909.11 47.20 908.53 47.13 908.03 47.01 907.61 46.84 907.29 46.62 907.05 46.30 906.87 45.81 906.74 45.17 906.64 44.38 906.58 43.42 906.56 42.19 906.56 42.19 905.12 43.06 905.17 44.24 905.21 45.76 905.23 47.60 905.25 49.78 905.26 51.94 905.25 53.77 905.23 55.28 905.21 56.46 905.17 57.31 905.12 57.31 906.56 56.11 906.56 55.14 906.58 54.33 906.64 53.68 906.74 53.20 906.87 52.88 907.05 52.66 907.29 52.49 907.61 52.37 908.03 52.29 908.53 52.26 909.11 52.24 937.82 52.26 938.41 52.34 938.91 52.46 939.32 52.63 939.65 52.84 939.89 53.16 940.08 53.65 940.22 54.30 940.32 55.10 940.38 56.08 940.40 57.28 940.40 57.28 941.84 56.42 941.79 55.23 941.75 53.71 941.73 51.87 941.71 49.70 941.71 47.54 941.71 45.71 941.73 44.20 941.75 43.02 941.79 42.16 941.84 Z" />
<path fill="rgb(0,0,0)" stroke="rgb(0,0,0)" stroke-width="0" d=" M 61.51 950.86 L 61.53 950.40 61.59 949.99 61.69 949.64 61.83 949.33 62.01 949.07 62.21 948.87 62.43 948.71 62.66 948.59 62.90 948.52 63.16 948.50 63.53 948.52 63.89 948.60 64.22 948.72 64.53 948.89 64.82 949.11 65.07 949.37 65.26 949.66 65.40 949.99 65.48 950.36 65.51 950.76 65.47 951.19 65.37 951.58 65.21 951.94 64.99 952.25 64.70 952.52 64.36 952.74 64.00 952.90 63.61 953.00 63.19 953.03 62.75 953.00 63.17 953.60 63.66 954.12 64.21 954.58 64.82 954.97 65.50 955.29 66.21 955.54 66.91 955.74 67.60 955.89 68.28 955.97 68.95 956.00 69.63 955.94 70.28 955.76 70.91 955.47 71.51 955.05 72.09 954.52 72.60 953.84 72.99 952.98 73.28 951.96 73.45 950.76 73.51 949.39 73.46 948.25 73.31 947.22 73.07 946.28 72.73 945.45 72.29 944.71 71.76 944.09 71.13 943.62 70.41 943.27 69.60 943.07 68.69 943.00 66.84 943.00 66.77 943.00 66.70 942.99 66.64 942.98 66.60 942.97 66.57 942.95 66.55 942.91 66.53 942.86 66.52 942.78 66.51 942.68 66.51 942.56 66.51 942.42 66.50 942.31 66.50 942.22 66.49 942.15 66.48 942.11 66.74 942.10 67.04 942.09 67.37 942.07 67.73 942.04 68.12 942.00 69.05 941.90 69.88 941.66 70.63 941.29 71.29 940.77 71.85 940.11 72.27 939.40 72.60 938.64 72.83 937.81 72.97 936.93 73.02 935.99 72.97 935.07 72.82 934.26 72.58 933.57 72.24 932.99 71.80 932.52 71.31 932.16 70.78 931.87 70.22 931.66 69.63 931.54 69.02 931.50 68.44 931.52 67.85 931.59 67.25 931.71 66.64 931.88 66.01 932.09 65.41 932.35 64.87 932.68 64.38 933.06 63.96 933.50 63.59 934.00 64.46 934.08 65.14 934.32 65.63 934.72 65.92 935.28 66.02 935.99 65.99 936.33 65.93 936.64 65.82 936.93 65.67 937.19 65.47 937.43 65.24 937.64 64.97 937.79 64.69 937.91 64.37 937.98 64.02 938.00 63.69 937.98 63.38 937.91 63.09 937.80 62.83 937.65 62.59 937.45 62.38 937.21 62.22 936.95 62.11 936.65 62.04 936.32 62.02 935.95 62.10 935.07 62.35 934.23 62.76 933.46 63.34 932.74 64.08 932.08 64.94 931.51 65.88 931.07 66.90 930.75 68.00 930.56 69.17 930.50 70.33 930.56 71.42 930.75 72.45 931.06 73.42 931.50 74.32 932.06 75.11 932.72 75.73 933.45 76.17 934.24 76.43 935.10 76.52 936.03 76.45 936.87 76.27 937.69 75.96 938.47 75.53 939.22 74.98 939.93 74.33 940.59 73.61 941.17 72.81 941.67 71.94 942.08 71.00 942.41 72.14 942.70 73.18 943.11 74.13 943.62 74.98 944.24 75.74 944.98 76.38 945.79 76.87 946.64 77.22 947.52 77.44 948.44 77.51 949.39 77.41 950.59 77.11 951.73 76.62 952.80 75.94 953.80 75.06 954.74 74.04 955.55 72.93 956.19 71.74 956.64 70.45 956.91 69.07 957.00 67.86 956.93 66.72 956.72 65.66 956.37 64.66 955.87 63.73 955.24 62.93 954.50 62.30 953.69 61.86 952.82 61.59 951.87 61.51 950.86 Z" />
<path fill="rgb(0,0,0)" stroke="rgb(0,0,0)" stroke-width="0" d=" M 377.99 496.84 L 377.99 495.40 379.22 495.40 380.18 495.38 380.99 495.32 381.63 495.22 382.11 495.09 382.43 494.91 382.65 494.67 382.82 494.34 382.94 493.92 383.01 493.42 383.03 492.82 383.06 464.11 383.04 463.53 382.97 463.03 382.84 462.61 382.67 462.29 382.45 462.05 382.13 461.87 381.65 461.74 381.01 461.64 380.21 461.58 379.25 461.56 378.03 461.56 378.03 460.12 378.89 460.17 380.08 460.21 381.59 460.23 383.44 460.25 385.61 460.26 387.77 460.25 389.61 460.23 391.12 460.21 392.29 460.17 393.15 460.12 393.15 461.56 391.94 461.56 390.97 461.58 390.16 461.64 389.52 461.74 389.03 461.87 388.71 462.05 388.49 462.29 388.32 462.61 388.20 463.03 388.12 463.53 388.10 464.11 388.07 492.82 388.10 493.41 388.17 493.91 388.29 494.32 388.46 494.65 388.68 494.89 389.00 495.08 389.48 495.22 390.13 495.32 390.94 495.38 391.91 495.40 393.11 495.40 393.11 496.84 392.25 496.79 391.06 496.75 389.55 496.73 387.70 496.71 385.53 496.70 383.38 496.71 381.54 496.73 380.04 496.75 378.85 496.79 377.99 496.84 Z" />
<path fill="rgb(0,0,0)" stroke="rgb(0,0,0)" stroke-width="0" d=" M 397.83 511.00 L 397.84 510.74 397.84 510.52 397.86 510.33 397.88 510.19 397.90 510.09 397.94 510.00 397.99 509.90 398.06 509.79 398.15 509.68 398.26 509.55 405.47 501.34 406.86 499.55 407.95 497.80 408.72 496.11 409.19 494.46 409.35 492.86 409.30 491.92 409.14 491.04 408.89 490.21 408.53 489.44 408.06 488.72 407.51 488.10 406.86 487.62 406.14 487.28 405.32 487.07 404.42 487.00 403.77 487.04 403.14 487.15 402.53 487.34 401.94 487.60 401.38 487.93 400.85 488.34 400.38 488.80 399.97 489.32 399.63 489.89 399.34 490.53 399.40 490.52 399.47 490.51 399.57 490.51 399.70 490.50 399.84 490.50 400.20 490.52 400.53 490.60 400.83 490.71 401.09 490.88 401.32 491.09 401.51 491.34 401.66 491.60 401.76 491.88 401.83 492.18 401.85 492.49 401.82 492.88 401.74 493.23 401.61 493.53 401.43 493.79 401.19 494.01 400.93 494.18 400.66 494.32 400.40 494.42 400.14 494.48 399.88 494.50 399.77 494.50 399.66 494.49 399.53 494.48 399.41 494.46 399.27 494.45 399.13 494.40 398.96 494.33 398.79 494.21 398.60 494.05 398.39 493.86 398.19 493.63 398.04 493.37 397.94 493.07 397.87 492.74 397.85 492.38 397.93 491.42 398.17 490.49 398.57 489.61 399.13 488.77 399.85 487.96 400.69 487.26 401.61 486.71 402.62 486.31 403.71 486.08 404.89 486.00 406.22 486.08 407.45 486.31 408.60 486.69 409.64 487.23 410.59 487.93 411.40 488.74 412.04 489.64 412.49 490.63 412.76 491.70 412.85 492.86 412.84 493.31 412.79 493.76 412.73 494.19 412.63 494.62 412.51 495.04 412.37 495.45 412.22 495.83 412.06 496.20 411.90 496.55 411.72 496.88 411.51 497.22 411.24 497.60 410.91 498.02 410.52 498.48 410.06 498.98 409.59 499.48 409.14 499.95 408.70 500.40 408.29 500.81 407.89 501.19 407.45 501.59 406.92 502.09 406.29 502.66 405.57 503.32 404.75 504.05 400.77 508.00 407.48 508.00 408.67 507.99 409.62 507.95 410.33 507.89 410.79 507.81 411.01 507.70 411.16 507.39 411.32 506.89 411.49 506.21 411.66 505.34 411.84 504.29 412.84 504.29 411.72 511.00 Z" />
<path fill="rgb(0,0,0)" stroke="rgb(0,0,0)" stroke-width="0" d=" M 304.33 894.74 L 304.34 894.67 304.37 894.55 304.41 894.36 304.47 894.12 304.55 893.83 304.64 893.48 304.75 893.10 304.88 892.67 305.03 892.20 305.19 891.69 305.37 891.18 305.54 890.69 305.72 890.24 305.90 889.81 306.09 889.42 306.71 888.42 307.41 887.64 308.17 887.08 309.01 886.75 309.91 886.64 309.92 886.64 309.93 886.64 309.94 886.64 309.95 886.64 309.97 886.64 310.59 886.68 311.20 886.80 311.78 887.00 312.35 887.29 312.90 887.65 313.40 888.10 313.83 888.65 314.18 889.28 314.46 890.01 314.67 890.83 315.89 889.32 317.19 888.15 318.57 887.31 320.03 886.81 321.57 886.64 322.29 886.67 323.00 886.75 323.69 886.90 324.37 887.10 325.03 887.35 325.62 887.68 326.08 888.09 326.40 888.57 326.60 889.13 326.66 889.78 326.63 890.27 326.52 890.71 326.36 891.10 326.13 891.44 325.84 891.73 325.51 891.97 325.17 892.16 324.83 892.29 324.49 892.37 324.14 892.40 323.79 892.38 323.47 892.33 323.20 892.23 322.97 892.10 322.77 891.94 322.61 891.75 322.49 891.56 322.40 891.36 322.35 891.15 322.33 890.94 322.34 890.84 322.35 890.74 322.37 890.62 322.41 890.50 322.45 890.36 322.51 890.22 322.60 890.06 322.71 889.88 322.85 889.69 323.02 889.49 323.21 889.29 323.44 889.11 323.70 888.96 323.98 888.83 324.30 888.73 323.85 888.50 323.35 888.31 322.79 888.18 322.18 888.11 321.51 888.08 321.00 888.11 320.49 888.20 320.00 888.35 319.50 888.56 319.01 888.83 318.54 889.14 318.11 889.46 317.71 889.80 317.35 890.15 317.02 890.52 316.72 890.91 316.42 891.32 316.14 891.74 315.87 892.18 315.61 892.65 315.37 893.09 315.17 893.49 314.99 893.83 314.86 894.13 314.75 894.37 314.66 894.57 314.59 894.76 314.52 894.92 314.47 895.05 314.42 895.17 310.81 909.71 310.53 910.48 310.13 911.07 309.62 911.50 309.01 911.75 308.28 911.84 307.93 911.82 307.63 911.77 307.35 911.67 307.12 911.54 306.92 911.37 306.76 911.18 306.64 910.98 306.55 910.77 306.50 910.54 306.48 910.31 306.51 910.19 306.59 910.05 306.72 909.89 306.90 909.72 307.14 909.52 311.31 892.87 311.44 892.29 311.55 891.74 311.63 891.20 311.68 890.69 311.70 890.20 311.64 889.43 311.45 888.84 311.15 888.42 310.71 888.16 310.16 888.08 309.64 888.14 309.15 888.32 308.69 888.63 308.26 889.06 307.86 889.60 307.48 890.27 307.11 891.06 306.74 891.96 306.37 892.98 306.01 894.12 305.92 894.42 305.83 894.67 305.76 894.86 305.69 895.01 305.63 895.11 305.56 895.17 305.47 895.22 305.35 895.25 305.21 895.27 305.05 895.28 304.79 895.25 304.59 895.18 304.45 895.07 304.36 894.93 304.33 894.74 Z" />
<path fill="none" stroke="rgb(0,0,0)" stroke-width="5" d=" M 810.00 315.00 Q 810.00 315.00 809.28 307.68 Q 808.56 300.37 806.42 293.33 Q 804.29 286.30 800.83 279.82 Q 797.36 273.33 792.70 267.65 Q 788.03 261.97 782.35 257.30 Q 776.67 252.64 770.18 249.17 Q 763.70 245.71 756.67 243.58 Q 749.63 241.44 742.32 240.72 Q 735.00 240.00 727.68 240.72 Q 720.37 241.44 713.33 243.58 Q 706.30 245.71 699.82 249.17 Q 693.33 252.64 687.65 257.30 Q 681.97 261.97 677.30 267.65 Q 672.64 273.33 669.17 279.82 Q 665.71 286.30 663.58 293.33 Q 661.44 300.37 660.72 307.68 Q 660.00 315.00 660.72 322.32 Q 661.44 329.63 663.58 336.67 Q 665.71 343.70 669.17 350.18 Q 672.64 356.67 677.30 362.35 Q 681.97 368.03 687.65 372.70 Q 693.33 377.36 699.82 380.83 Q 706.30 384.29 713.33 386.42 Q 720.37 388.56 727.68 389.28 Q 735.00 390.00 742.32 389.28 Q 749.63 388.56 756.67 386.42 Q 763.70 384.29 768.02 381.98" />
<polygon points="800 315 810 345 820 315 810 315" fill="rgb(0,0,0)" stroke="rgb(0,0,0)" stroke-width="5" />
<path fill="none" stroke="rgb(0,0,0)" stroke-width="5" d=" M 320.00 715.00 Q 320.00 715.00 319.28 707.68 Q 318.56 700.37 316.42 693.33 Q 314.29 686.30 310.83 679.82 Q 307.36 673.33 302.70 667.65 Q 298.03 661.97 292.35 657.30 Q 286.67 652.64 280.18 649.17 Q 273.70 645.71 266.67 643.58 Q 259.63 641.44 252.32 640.72 Q 245.00 640.00 237.68 640.72 Q 230.37 641.44 223.33 643.58 Q 216.30 645.71 209.82 649.17 Q 203.33 652.64 197.65 657.30 Q 191.97 661.97 187.30 667.65 Q 182.64 673.33 179.17 679.82 Q 175.71 686.30 173.58 693.33 Q 171.44 700.37 170.72 707.68 Q 170.00 715.00 170.72 722.32 Q 171.44 729.63 173.58 736.67 Q 175.71 743.70 179.17 750.18 Q 182.64 756.67 187.30 762.35 Q 191.97 768.03 197.65 772.70 Q 203.33 777.36 209.82 780.83 Q 216.30 784.29 223.33 786.43 Q 230.37 788.56 237.68 789.28 Q 245.00 790.00 252.32 789.28 Q 259.63 788.56 266.67 786.43 Q 273.70 784.29 278.02 781.98" />
<polygon points="310 715 320 745 330 715 320 715" fill="rgb(0,0,0)" stroke="rgb(0,0,0)" stroke-width="5" />
<path fill="rgb(0,0,0)" stroke="rgb(0,0,0)" stroke-width="0" d=" M 160.67 907.33 L 161.11 904.27 162.44 901.50 164.64 899.02 167.72 896.81 171.68 894.89 169.16 893.78 167.20 892.45 165.80 890.90 164.96 889.13 164.68 887.15 164.87 885.11 165.42 883.19 166.34 881.39 167.63 879.71 169.29 878.15 171.20 876.80 173.22 875.75 175.37 875.00 177.65 874.55 180.04 874.40 181.09 874.45 182.09 874.59 183.03 874.83 183.92 875.16 184.76 875.58 185.53 876.08 186.22 876.62 186.82 877.22 187.34 877.86 187.77 878.55 188.14 879.26 188.47 879.93 188.76 880.58 189.01 881.21 189.21 881.81 189.38 882.38 189.51 882.92 189.61 883.43 189.66 883.92 189.68 884.38 189.66 884.88 189.58 885.36 189.45 885.81 189.27 886.23 189.04 886.63 188.78 886.98 188.50 887.25 188.21 887.45 187.91 887.56 187.59 887.60 187.22 887.54 186.94 887.34 186.74 887.02 186.61 886.57 186.57 885.99 186.58 885.93 186.58 885.84 186.59 885.71 186.61 885.55 186.63 885.35 186.65 885.14 186.66 884.93 186.67 884.74 186.68 884.55 186.68 884.38 186.60 883.04 186.37 881.82 185.97 880.71 185.42 879.72 184.71 878.84 183.88 878.11 182.99 877.54 182.02 877.13 180.99 876.88 179.89 876.80 178.45 876.93 177.08 877.34 175.80 878.01 174.58 878.95 173.44 880.17 172.45 881.52 171.68 882.88 171.12 884.26 170.79 885.65 170.68 887.06 170.75 888.15 170.96 889.17 171.32 890.10 171.81 890.96 172.45 891.74 173.14 892.41 173.82 892.93 174.47 893.30 175.10 893.53 175.71 893.60 176.07 893.58 176.50 893.50 177.03 893.38 177.63 893.22 178.32 893.00 179.00 892.78 179.60 892.62 180.12 892.50 180.55 892.42 180.90 892.40 181.58 892.48 182.11 892.71 182.49 893.09 182.72 893.62 182.79 894.31 182.76 894.75 182.67 895.16 182.51 895.56 182.29 895.94 182.00 896.31 181.67 896.63 181.31 896.88 180.91 897.06 180.49 897.16 180.03 897.20 179.68 897.18 179.23 897.10 178.71 896.98 178.09 896.82 177.38 896.60 176.68 896.38 176.09 896.22 175.62 896.10 175.25 896.02 174.99 896.00 174.11 896.14 173.15 896.54 172.11 897.22 170.98 898.17 169.78 899.38 168.67 900.79 167.80 902.31 167.17 903.93 166.80 905.66 166.67 907.49 166.72 908.47 166.88 909.41 167.14 910.31 167.50 911.17 167.97 911.99 168.55 912.72 169.26 913.28 170.08 913.68 171.02 913.92 172.09 914.00 173.36 913.92 174.67 913.69 176.00 913.29 177.36 912.75 178.74 912.04 180.10 911.19 181.36 910.21 182.53 909.11 183.60 907.87 184.59 906.50 185.00 905.94 185.34 905.50 185.60 905.18 185.80 904.98 185.93 904.89 186.05 904.86 186.16 904.87 186.27 904.91 186.38 904.98 186.48 905.08 186.57 905.20 186.64 905.33 186.69 905.48 186.72 905.65 186.73 905.83 186.72 906.03 186.67 906.22 186.61 906.42 186.51 906.63 186.39 906.84 185.59 908.23 184.60 909.59 183.41 910.90 182.03 912.17 180.44 913.39 178.72 914.47 176.94 915.32 175.09 915.92 173.18 916.28 171.20 916.40 169.57 916.31 168.02 916.03 166.55 915.56 165.16 914.91 163.85 914.08 162.70 913.06 161.81 911.88 161.18 910.53 160.79 909.01 160.67 907.33 Z" />
<path fill="rgb(0,0,0)" stroke="rgb(0,0,0)" stroke-width="0" d=" M 420.67 97.32 L 421.11 94.27 422.44 91.50 424.64 89.02 427.72 86.81 431.68 84.89 429.16 83.78 427.20 82.45 425.80 80.90 424.96 79.13 424.68 77.15 424.87 75.11 425.42 73.19 426.34 71.39 427.63 69.71 429.29 68.15 431.20 66.80 433.22 65.75 435.37 65.00 437.65 64.55 440.04 64.40 441.09 64.45 442.09 64.59 443.03 64.83 443.92 65.16 444.76 65.58 445.53 66.08 446.22 66.62 446.82 67.22 447.34 67.86 447.77 68.55 448.14 69.26 448.47 69.93 448.76 70.58 449.01 71.21 449.21 71.81 449.38 72.38 449.51 72.92 449.61 73.43 449.66 73.92 449.68 74.38 449.66 74.88 449.58 75.36 449.45 75.81 449.27 76.24 449.04 76.63 448.78 76.98 448.50 77.25 448.21 77.45 447.91 77.56 447.59 77.60 447.22 77.54 446.94 77.34 446.74 77.02 446.61 76.57 446.57 75.99 446.58 75.93 446.58 75.84 446.59 75.71 446.61 75.55 446.63 75.35 446.65 75.14 446.66 74.93 446.67 74.74 446.68 74.55 446.68 74.38 446.60 73.04 446.37 71.82 445.97 70.71 445.42 69.72 444.71 68.84 443.88 68.11 442.99 67.54 442.02 67.13 440.99 66.88 439.89 66.80 438.45 66.93 437.08 67.34 435.80 68.01 434.58 68.95 433.44 70.17 432.45 71.52 431.67 72.88 431.12 74.26 430.79 75.65 430.68 77.06 430.75 78.15 430.96 79.17 431.32 80.10 431.81 80.96 432.45 81.74 433.14 82.41 433.82 82.93 434.47 83.30 435.10 83.53 435.71 83.60 436.07 83.58 436.50 83.50 437.02 83.38 437.63 83.22 438.32 83.00 439.00 82.78 439.60 82.62 440.12 82.50 440.55 82.42 440.90 82.40 441.58 82.48 442.11 82.71 442.49 83.09 442.72 83.62 442.79 84.31 442.76 84.75 442.67 85.16 442.51 85.56 442.29 85.94 442.00 86.31 441.67 86.63 441.31 86.88 440.91 87.06 440.49 87.16 440.03 87.20 439.68 87.18 439.23 87.10 438.71 86.98 438.09 86.82 437.38 86.60 436.68 86.38 436.09 86.22 435.62 86.10 435.25 86.02 434.99 86.00 434.11 86.14 433.15 86.54 432.11 87.22 430.98 88.17 429.78 89.38 428.67 90.79 427.80 92.31 427.17 93.93 426.80 95.66 426.67 97.49 426.72 98.47 426.88 99.41 427.14 100.31 427.50 101.17 427.97 101.99 428.55 102.72 429.26 103.28 430.08 103.68 431.02 103.92 432.09 104.00 433.36 103.92 434.67 103.69 436.00 103.29 437.36 102.75 438.74 102.04 440.10 101.19 441.36 100.21 442.53 99.11 443.60 97.87 444.59 96.50 445.00 95.94 445.34 95.50 445.60 95.18 445.80 94.98 445.93 94.89 446.05 94.86 446.16 94.87 446.27 94.91 446.38 94.98 446.48 95.07 446.57 95.20 446.64 95.33 446.69 95.48 446.72 95.65 446.73 95.83 446.72 96.03 446.67 96.22 446.61 96.43 446.51 96.63 446.39 96.84 445.59 98.23 444.60 99.59 443.41 100.90 442.03 102.17 440.44 103.39 438.72 104.47 436.94 105.32 435.09 105.92 433.18 106.28 431.20 106.40 429.57 106.31 428.02 106.03 426.55 105.56 425.16 104.91 423.85 104.07 422.70 103.06 421.81 101.88 421.18 100.53 420.79 99.01 420.67 97.32 Z" />
<path fill="rgb(0,0,0)" stroke="rgb(0,0,0)" stroke-width="0" d=" M 192.00 923.53 L 192.03 923.19 192.10 922.87 192.23 922.57 192.40 922.31 192.63 922.07 192.89 921.86 193.17 921.70 193.46 921.59 193.77 921.52 194.10 921.50 194.43 921.55 194.68 921.69 194.86 921.93 194.96 922.26 195.00 922.69 194.99 922.90 194.96 923.12 194.91 923.33 194.84 923.55 194.75 923.77 194.63 923.97 194.50 924.15 194.34 924.30 194.16 924.41 193.95 924.50 194.20 924.68 194.46 924.82 194.75 924.92 195.07 924.98 195.41 925.00 195.42 925.00 195.44 925.00 195.45 925.00 195.47 925.00 195.48 925.00 195.80 924.98 196.10 924.93 196.39 924.84 196.66 924.71 196.91 924.55 197.16 924.35 197.39 924.11 197.60 923.84 197.80 923.52 197.99 923.16 198.16 922.80 198.31 922.44 198.44 922.11 198.55 921.78 198.64 921.47 198.72 921.15 198.82 920.79 198.92 920.40 199.04 919.96 199.16 919.48 199.36 918.74 199.55 918.02 199.73 917.32 199.91 916.64 200.09 915.98 200.39 914.79 200.61 913.78 200.78 912.95 200.87 912.31 200.91 911.86 200.89 911.43 200.83 911.04 200.73 910.70 200.59 910.39 200.41 910.12 200.19 909.90 199.95 909.72 199.68 909.60 199.38 909.52 199.05 909.50 198.54 909.54 198.03 909.68 197.52 909.91 197.01 910.22 196.50 910.62 196.01 911.12 195.57 911.69 195.17 912.34 194.82 913.08 194.51 913.90 194.46 914.06 194.42 914.19 194.39 914.29 194.35 914.37 194.32 914.41 194.29 914.45 194.23 914.47 194.16 914.49 194.07 914.50 193.96 914.50 193.80 914.49 193.67 914.44 193.58 914.37 193.53 914.27 193.51 914.13 193.52 913.97 193.57 913.76 193.64 913.51 193.75 913.22 193.89 912.88 194.05 912.53 194.23 912.16 194.44 911.78 194.67 911.40 194.92 911.00 195.20 910.61 195.52 910.24 195.88 909.89 196.27 909.56 196.70 909.25 197.15 908.98 197.62 908.77 198.09 908.62 198.58 908.53 199.07 908.50 200.07 908.61 200.93 908.94 201.66 909.49 202.25 910.26 202.70 911.25 202.90 910.88 203.15 910.51 203.43 910.14 203.75 909.78 204.10 909.41 204.49 909.08 204.92 908.83 205.38 908.65 205.88 908.54 206.41 908.50 206.83 908.52 207.25 908.58 207.67 908.68 208.08 908.82 208.49 909.00 208.86 909.22 209.15 909.50 209.35 909.84 209.47 910.23 209.52 910.68 209.49 911.02 209.43 911.32 209.32 911.60 209.18 911.83 209.00 912.04 208.79 912.20 208.58 912.33 208.38 912.43 208.17 912.48 207.96 912.50 207.68 912.49 207.42 912.45 207.20 912.38 207.02 912.29 206.86 912.18 206.73 912.05 206.63 911.91 206.56 911.78 206.52 911.63 206.51 911.48 206.51 911.42 206.51 911.35 206.52 911.28 206.54 911.20 206.55 911.12 206.58 911.02 206.64 910.92 206.73 910.79 206.85 910.65 207.00 910.49 207.17 910.34 207.37 910.21 207.59 910.10 207.84 910.01 208.12 909.95 207.84 909.79 207.53 909.66 207.18 909.57 206.79 909.52 206.37 909.50 205.54 909.66 204.80 910.13 204.14 910.92 203.57 912.02 203.09 913.44 202.76 914.85 202.46 916.08 202.20 917.14 201.98 918.02 201.80 918.72 201.53 919.88 201.33 920.85 201.18 921.63 201.09 922.22 201.06 922.62 201.08 923.11 201.15 923.54 201.25 923.91 201.40 924.22 201.59 924.46 201.80 924.66 202.03 924.81 202.27 924.91 202.53 924.98 202.80 925.00 203.34 924.95 203.87 924.82 204.40 924.59 204.93 924.28 205.45 923.87 205.95 923.38 206.40 922.80 206.81 922.15 207.18 921.41 207.51 920.59 207.55 920.43 207.59 920.30 207.63 920.20 207.67 920.12 207.70 920.08 207.74 920.05 207.79 920.03 207.87 920.01 207.96 920.00 208.06 920.00 208.23 920.01 208.35 920.06 208.44 920.13 208.49 920.23 208.51 920.36 208.49 920.51 208.44 920.70 208.37 920.94 208.26 921.22 208.12 921.55 207.96 921.90 207.78 922.27 207.57 922.64 207.33 923.03 207.08 923.44 206.79 923.84 206.46 924.22 206.09 924.57 205.69 924.91 205.24 925.23 204.77 925.51 204.28 925.72 203.77 925.88 203.25 925.97 202.72 926.00 202.31 925.98 201.90 925.90 201.49 925.78 201.08 925.61 200.66 925.40 200.27 925.12 199.92 924.77 199.61 924.35 199.35 923.86 199.12 923.29 198.49 924.26 197.80 925.02 197.05 925.56 196.24 925.89 195.38 926.00 194.83 925.97 194.33 925.89 193.85 925.76 193.40 925.57 192.99 925.32 192.63 925.03 192.36 924.71 192.16 924.35 192.04 923.96 192.00 923.53 Z" />
</svg>
