<?xml version="1.0" encoding="utf-8"?>
<!-- Created with "sPlan" (http://www.abacom-online.de) -->
<svg version="1.1" baseProfile="full"
xmlns="http://www.w3.org/2000/svg"
width="53mm" height="63mm"
viewBox="0 0 530 630">
<title>graph1</title>
<defs>
<style type="text/css">
<![CDATA[
polyline {stroke-linecap:round; stroke-linejoin:round}
polygon {stroke-linecap:round; stroke-linejoin:round}
path {stroke-linecap:round; stroke-linejoin:round}
circle {stroke-linecap:round; stroke-linejoin:round}
]]>
</style>
</defs>
<polyline points="110.00 530.00 170.00 530.00" fill="none" stroke="rgb(0,0,0)" stroke-width="5" />
<circle cx="260.32" cy="529.98" r="89.74" fill="rgb(255,255,255)" stroke="rgb(0,0,0)" stroke-width="5" />
<polyline points="350.00 530.00 410.00 530.00" fill="none" stroke="rgb(0,0,0)" stroke-width="5" />
<polyline points="225.00 492.50 257.50 590.00 290.00 492.50" fill="none" stroke="rgb(0,0,0)" stroke-width="5" />
<polyline points="135.00 140.00 5.00 140.00 5.00 530.00 110.00 530.00" fill="none" stroke="rgb(0,0,0)" stroke-width="5" />
<polyline points="385.00 140.00 515.00 140.00 515.00 530.00 410.00 530.00" fill="none" stroke="rgb(0,0,0)" stroke-width="5" />
<path fill="rgb(0,0,0)" stroke="rgb(0,0,0)" stroke-width="0" d=" M 179.45 65.71 L 179.46 65.63 179.49 65.51 179.53 65.32 179.59 65.07 179.67 64.77 179.77 64.41 179.88 64.02 180.02 63.58 180.17 63.10 180.34 62.57 180.52 62.04 180.70 61.54 180.88 61.08 181.07 60.64 181.26 60.24 181.90 59.21 182.61 58.41 183.40 57.84 184.26 57.49 185.19 57.38 185.20 57.38 185.21 57.38 185.22 57.38 185.23 57.38 185.24 57.38 185.89 57.42 186.51 57.55 187.11 57.75 187.69 58.05 188.26 58.42 188.77 58.88 189.21 59.44 189.58 60.09 189.86 60.84 190.08 61.68 191.33 60.13 192.67 58.93 194.09 58.07 195.59 57.55 197.17 57.38 197.91 57.41 198.64 57.50 199.35 57.64 200.05 57.85 200.73 58.11 201.33 58.45 201.80 58.87 202.14 59.36 202.34 59.94 202.40 60.61 202.37 61.11 202.26 61.56 202.09 61.96 201.86 62.31 201.55 62.61 201.22 62.86 200.87 63.05 200.52 63.19 200.17 63.27 199.81 63.30 199.45 63.28 199.13 63.22 198.84 63.13 198.60 63.00 198.40 62.83 198.24 62.63 198.11 62.43 198.02 62.23 197.97 62.02 197.95 61.80 197.96 61.70 197.97 61.59 198.00 61.47 198.03 61.35 198.07 61.21 198.14 61.06 198.22 60.89 198.34 60.71 198.49 60.52 198.66 60.31 198.86 60.10 199.09 59.92 199.35 59.77 199.65 59.64 199.98 59.53 199.51 59.29 198.99 59.10 198.42 58.97 197.79 58.89 197.11 58.86 196.58 58.89 196.06 58.98 195.55 59.14 195.04 59.35 194.54 59.63 194.06 59.94 193.61 60.28 193.20 60.62 192.83 60.99 192.49 61.37 192.18 61.77 191.88 62.18 191.59 62.62 191.31 63.08 191.04 63.55 190.80 64.01 190.59 64.42 190.41 64.77 190.27 65.08 190.16 65.32 190.07 65.53 189.99 65.72 189.93 65.89 189.87 66.03 189.82 66.14 186.11 81.09 185.82 81.88 185.41 82.49 184.89 82.93 184.26 83.19 183.51 83.28 183.15 83.26 182.84 83.20 182.56 83.11 182.32 82.97 182.12 82.80 181.95 82.60 181.82 82.40 181.73 82.18 181.68 81.95 181.66 81.71 181.69 81.58 181.77 81.44 181.91 81.28 182.10 81.10 182.34 80.90 186.62 63.79 186.76 63.19 186.87 62.62 186.95 62.07 187.01 61.54 187.03 61.03 186.96 60.25 186.77 59.64 186.45 59.21 186.01 58.95 185.44 58.86 184.91 58.92 184.40 59.11 183.93 59.42 183.49 59.86 183.08 60.43 182.69 61.11 182.31 61.92 181.92 62.85 181.55 63.90 181.17 65.07 181.08 65.38 181.00 65.63 180.92 65.83 180.85 65.98 180.79 66.08 180.72 66.15 180.62 66.20 180.50 66.23 180.36 66.25 180.19 66.26 179.93 66.23 179.72 66.16 179.57 66.05 179.48 65.90 179.45 65.71 Z" />
<polyline points="135.00 140.00 235.00 140.00" fill="none" stroke="rgb(0,0,0)" stroke-width="5" />
<polyline points="285.00 140.00 385.00 140.00" fill="none" stroke="rgb(0,0,0)" stroke-width="5" />
<polyline points="235.00 5.00 235.00 275.00" fill="none" stroke="rgb(0,0,0)" stroke-width="5" />
<polyline points="285.00 55.00 285.00 225.00" fill="none" stroke="rgb(0,0,0)" stroke-width="5" />
<path fill="rgb(0,0,0)" stroke="rgb(0,0,0)" stroke-width="0" d=" M 320.67 77.32 L 321.11 74.27 322.44 71.50 324.64 69.02 327.72 66.81 331.68 64.89 329.16 63.78 327.20 62.45 325.80 60.90 324.96 59.13 324.68 57.15 324.87 55.11 325.42 53.19 326.34 51.39 327.63 49.71 329.29 48.15 331.20 46.80 333.22 45.75 335.37 45.00 337.65 44.55 340.04 44.40 341.09 44.45 342.09 44.59 343.03 44.83 343.92 45.16 344.76 45.58 345.53 46.08 346.22 46.62 346.82 47.22 347.34 47.86 347.77 48.55 348.14 49.26 348.47 49.93 348.76 50.58 349.01 51.21 349.21 51.81 349.38 52.38 349.51 52.92 349.61 53.43 349.66 53.92 349.68 54.38 349.66 54.88 349.58 55.36 349.45 55.81 349.27 56.24 349.04 56.63 348.78 56.98 348.50 57.25 348.21 57.45 347.91 57.56 347.59 57.60 347.22 57.54 346.94 57.34 346.74 57.02 346.61 56.57 346.57 55.99 346.58 55.93 346.58 55.84 346.59 55.71 346.61 55.55 346.63 55.35 346.65 55.14 346.66 54.93 346.67 54.74 346.68 54.55 346.68 54.38 346.60 53.04 346.37 51.82 345.97 50.71 345.42 49.72 344.71 48.84 343.88 48.11 342.99 47.54 342.02 47.13 340.99 46.88 339.89 46.80 338.45 46.93 337.08 47.34 335.80 48.01 334.58 48.95 333.44 50.17 332.45 51.52 331.68 52.88 331.12 54.26 330.79 55.65 330.68 57.06 330.75 58.15 330.96 59.17 331.32 60.10 331.81 60.96 332.45 61.74 333.14 62.41 333.82 62.93 334.47 63.30 335.10 63.53 335.71 63.60 336.07 63.58 336.50 63.50 337.03 63.38 337.63 63.22 338.32 63.00 339.00 62.78 339.60 62.62 340.12 62.50 340.55 62.42 340.90 62.40 341.58 62.48 342.11 62.71 342.49 63.09 342.72 63.62 342.79 64.31 342.76 64.75 342.67 65.16 342.51 65.56 342.29 65.94 342.00 66.31 341.67 66.63 341.31 66.88 340.91 67.06 340.49 67.16 340.03 67.20 339.68 67.18 339.23 67.10 338.71 66.98 338.09 66.82 337.38 66.60 336.68 66.38 336.09 66.22 335.62 66.10 335.25 66.02 334.99 66.00 334.11 66.14 333.15 66.54 332.11 67.22 330.98 68.17 329.78 69.38 328.67 70.79 327.80 72.31 327.17 73.93 326.80 75.66 326.67 77.49 326.72 78.47 326.88 79.41 327.14 80.31 327.50 81.17 327.97 81.99 328.55 82.72 329.26 83.28 330.08 83.68 331.02 83.92 332.09 84.00 333.36 83.92 334.67 83.69 336.00 83.29 337.36 82.75 338.74 82.04 340.10 81.19 341.36 80.21 342.53 79.11 343.60 77.87 344.59 76.50 345.00 75.94 345.34 75.50 345.60 75.18 345.80 74.98 345.93 74.89 346.05 74.86 346.16 74.87 346.27 74.91 346.38 74.98 346.48 75.07 346.57 75.20 346.64 75.33 346.69 75.48 346.72 75.65 346.73 75.83 346.72 76.03 346.67 76.22 346.61 76.42 346.51 76.63 346.39 76.84 345.59 78.23 344.60 79.59 343.41 80.90 342.03 82.17 340.44 83.39 338.72 84.47 336.94 85.32 335.09 85.92 333.18 86.28 331.20 86.40 329.57 86.31 328.02 86.03 326.55 85.56 325.16 84.91 323.85 84.07 322.70 83.06 321.81 81.88 321.18 80.53 320.79 79.01 320.67 77.32 Z" />
</svg>
